<?xml version="1.0" encoding="utf-8"?>
<!-- Generator: Adobe Illustrator 19.2.1, SVG Export Plug-In . SVG Version: 6.00 Build 0)  -->
<svg version="1.1" id="layer" xmlns="http://www.w3.org/2000/svg" xmlns:xlink="http://www.w3.org/1999/xlink" x="0px" y="0px"
	 viewBox="0 0 652 652" style="enable-background:new 0 0 652 652;" xml:space="preserve">
<style type="text/css">
	.st0{fill:#00682C;}
	.st1{fill:#FFFFFF;}
	.st2{fill:#066E3A;}
</style>
<g>
	<path d="M181.9,359v-2.3h7.2v5.4c-0.7,0.6-1.7,1-3.1,1.5c-1.3,0.4-2.7,0.6-4.1,0.6c-1.7,0-3.3-0.3-4.6-0.9
		c-1.3-0.6-2.3-1.4-2.9-2.5c-0.7-1.1-1-2.3-1-3.6c0-1.4,0.4-2.7,1.1-3.7c0.7-1.1,1.8-1.9,3.2-2.5c1.1-0.5,2.4-0.7,4-0.7
		c2.1,0,3.7,0.4,4.8,1.1c1.2,0.7,1.9,1.7,2.2,2.9l-3.3,0.5c-0.2-0.7-0.7-1.2-1.3-1.6s-1.5-0.6-2.4-0.6c-1.5,0-2.6,0.4-3.5,1.1
		c-0.9,0.8-1.3,1.9-1.3,3.4c0,1.6,0.4,2.8,1.3,3.6c0.9,0.8,2,1.2,3.4,1.2c0.7,0,1.4-0.1,2.1-0.3c0.7-0.2,1.3-0.5,1.8-0.8V359H181.9z
		"/>
</g>
<rect x="203.3" y="350.5" width="3.2" height="13.5"/>
<g>
	<path d="M223.4,359.1c0,1,0.3,1.7,0.9,2.2c0.6,0.5,1.3,0.8,2.1,0.8c0.8,0,1.5-0.3,2.1-0.8c0.6-0.5,0.8-1.3,0.8-2.3
		c0-1-0.3-1.7-0.8-2.2c-0.6-0.5-1.3-0.8-2.1-0.8c-0.8,0-1.5,0.3-2.1,0.8C223.7,357.4,223.4,358.1,223.4,359.1 M220.1,359
		c0-0.9,0.3-1.7,0.8-2.5c0.5-0.8,1.3-1.4,2.2-1.8c1-0.4,2-0.6,3.2-0.6c1.8,0,3.3,0.5,4.5,1.4c1.2,1,1.7,2.2,1.7,3.6
		c0,1.5-0.6,2.7-1.8,3.7c-1.2,1-2.7,1.5-4.4,1.5c-1.1,0-2.2-0.2-3.2-0.6c-1-0.4-1.8-1-2.3-1.8C220.4,361.1,220.1,360.1,220.1,359"/>
	<path d="M249.2,358.9c0,1,0.2,1.8,0.6,2.3c0.6,0.7,1.3,1,2.2,1c0.7,0,1.3-0.2,1.8-0.7c0.5-0.5,0.7-1.3,0.7-2.3
		c0-1.1-0.2-1.9-0.7-2.4c-0.5-0.5-1.1-0.7-1.9-0.7c-0.8,0-1.4,0.2-1.9,0.7C249.4,357.2,249.2,357.9,249.2,358.9 M246,364v-13.5h3.2
		v4.9c1-0.9,2.1-1.4,3.5-1.4c1.5,0,2.7,0.4,3.6,1.3c1,0.9,1.4,2.1,1.4,3.7c0,1.7-0.5,3-1.5,3.9c-1,0.9-2.2,1.4-3.6,1.4
		c-0.7,0-1.4-0.1-2-0.4c-0.7-0.3-1.2-0.7-1.7-1.2v1.4H246z"/>
	<path d="M278.1,359.3c-0.4,0.1-1.1,0.2-1.9,0.4c-0.9,0.2-1.5,0.3-1.7,0.5c-0.4,0.2-0.6,0.5-0.6,0.9c0,0.4,0.2,0.7,0.5,0.9
		c0.3,0.3,0.8,0.4,1.3,0.4c0.6,0,1.1-0.2,1.6-0.5c0.4-0.2,0.6-0.5,0.8-0.9c0.1-0.2,0.1-0.6,0.1-1.3V359.3z M273.8,357.2l-2.9-0.4
		c0.3-0.9,0.9-1.6,1.7-2.1c0.8-0.5,2-0.7,3.5-0.7c1.4,0,2.5,0.1,3.2,0.4c0.7,0.3,1.2,0.6,1.5,1c0.3,0.4,0.4,1.2,0.4,2.3l0,3
		c0,0.9,0.1,1.5,0.2,1.9c0.1,0.4,0.3,0.8,0.6,1.3h-3.2c-0.1-0.2-0.2-0.4-0.3-0.8c0-0.2-0.1-0.2-0.1-0.3c-0.5,0.4-1.1,0.8-1.7,1
		c-0.6,0.2-1.3,0.3-2,0.3c-1.2,0-2.2-0.3-2.9-0.8c-0.7-0.5-1.1-1.2-1.1-2.1c0-0.6,0.2-1,0.5-1.5c0.3-0.4,0.8-0.8,1.4-1
		c0.6-0.2,1.4-0.4,2.5-0.6c1.5-0.2,2.5-0.4,3.1-0.6v-0.3c0-0.5-0.2-0.9-0.5-1.1c-0.3-0.2-0.9-0.3-1.7-0.3c-0.6,0-1,0.1-1.3,0.3
		C274.3,356.4,274,356.8,273.8,357.2"/>
</g>
<rect x="295.5" y="350.5" width="3.2" height="13.5"/>
<g>
	<path d="M329.7,359.6l3.3-0.3c0.2,0.9,0.6,1.5,1.2,2c0.6,0.4,1.4,0.6,2.4,0.6c1.1,0,1.9-0.2,2.4-0.6c0.5-0.4,0.8-0.8,0.8-1.3
		c0-0.3-0.1-0.6-0.3-0.8c-0.2-0.2-0.6-0.4-1.2-0.6c-0.4-0.1-1.3-0.3-2.7-0.6c-1.8-0.4-3.1-0.8-3.8-1.3c-1-0.7-1.5-1.7-1.5-2.7
		c0-0.7,0.2-1.3,0.7-1.9c0.5-0.6,1.2-1.1,2.1-1.4c0.9-0.3,2-0.5,3.3-0.5c2.1,0,3.7,0.4,4.7,1.1c1.1,0.7,1.6,1.7,1.7,3l-3.4,0.1
		c-0.1-0.7-0.5-1.2-0.9-1.5c-0.5-0.3-1.2-0.5-2.1-0.5c-1,0-1.7,0.2-2.3,0.5c-0.4,0.2-0.5,0.5-0.5,0.8c0,0.3,0.2,0.6,0.5,0.8
		c0.4,0.3,1.4,0.6,3.1,0.9c1.6,0.3,2.8,0.6,3.6,1c0.8,0.3,1.4,0.8,1.8,1.4c0.4,0.6,0.7,1.3,0.7,2.2c0,0.8-0.3,1.5-0.8,2.2
		c-0.5,0.7-1.3,1.2-2.2,1.5c-1,0.3-2.2,0.5-3.6,0.5c-2.1,0-3.7-0.4-4.8-1.2C330.6,362.3,330,361.1,329.7,359.6"/>
	<path d="M359.7,359.1c0,1,0.3,1.7,0.9,2.2c0.6,0.5,1.3,0.8,2.1,0.8c0.8,0,1.5-0.3,2.1-0.8c0.6-0.5,0.8-1.3,0.8-2.3
		c0-1-0.3-1.7-0.8-2.2c-0.6-0.5-1.3-0.8-2.1-0.8c-0.8,0-1.5,0.3-2.1,0.8C360,357.4,359.7,358.1,359.7,359.1 M356.4,359
		c0-0.9,0.3-1.7,0.8-2.5c0.5-0.8,1.3-1.4,2.2-1.8s2-0.6,3.2-0.6c1.8,0,3.3,0.5,4.5,1.4c1.2,1,1.7,2.2,1.7,3.6c0,1.5-0.6,2.7-1.8,3.7
		c-1.2,1-2.7,1.5-4.4,1.5c-1.1,0-2.2-0.2-3.2-0.6c-1-0.4-1.8-1-2.3-1.8C356.7,361.1,356.4,360.1,356.4,359"/>
</g>
<rect x="382.5" y="350.5" width="3.2" height="13.5"/>
<g>
	<path d="M407.9,364v-1.5c-0.4,0.5-1,0.9-1.7,1.2c-0.7,0.3-1.5,0.5-2.3,0.5c-0.8,0-1.5-0.1-2.2-0.4c-0.6-0.3-1.1-0.7-1.4-1.2
		c-0.3-0.5-0.4-1.2-0.4-2.2v-6.2h3.2v4.5c0,1.4,0.1,2.2,0.2,2.5c0.1,0.3,0.3,0.6,0.6,0.7c0.3,0.2,0.7,0.3,1.2,0.3
		c0.5,0,1-0.1,1.5-0.4c0.4-0.2,0.7-0.5,0.9-0.9c0.2-0.4,0.2-1.2,0.2-2.6v-4.1h3.2v9.8H407.9z"/>
	<path d="M430.8,354.2v2.1h-2.2v3.9c0,0.8,0,1.3,0.1,1.4c0,0.1,0.1,0.2,0.3,0.3c0.1,0.1,0.3,0.1,0.5,0.1c0.3,0,0.7-0.1,1.3-0.2
		l0.3,2c-0.7,0.3-1.6,0.4-2.5,0.4c-0.6,0-1.1-0.1-1.6-0.2c-0.5-0.2-0.8-0.4-1-0.6c-0.2-0.2-0.4-0.6-0.5-1c-0.1-0.3-0.1-0.9-0.1-1.8
		v-4.3H424v-2.1h1.5v-1.9l3.2-1.5v3.5H430.8z"/>
</g>
<path d="M444.1,364h3.2v-9.8h-3.2V364z M444.1,352.9h3.2v-2.4h-3.2V352.9z"/>
<g>
	<path d="M464.2,359.1c0,1,0.3,1.7,0.9,2.2c0.6,0.5,1.3,0.8,2.1,0.8c0.8,0,1.5-0.3,2.1-0.8c0.6-0.5,0.8-1.3,0.8-2.3
		c0-1-0.3-1.7-0.8-2.2c-0.6-0.5-1.3-0.8-2.1-0.8c-0.8,0-1.5,0.3-2.1,0.8C464.5,357.4,464.2,358.1,464.2,359.1 M461,359
		c0-0.9,0.3-1.7,0.8-2.5c0.5-0.8,1.3-1.4,2.2-1.8c1-0.4,2-0.6,3.2-0.6c1.8,0,3.3,0.5,4.5,1.4c1.2,1,1.7,2.2,1.7,3.6
		c0,1.5-0.6,2.7-1.8,3.7c-1.2,1-2.7,1.5-4.4,1.5c-1.1,0-2.2-0.2-3.2-0.6c-1-0.4-1.8-1-2.3-1.8C461.2,361.1,461,360.1,461,359"/>
	<path d="M497.9,364h-3.2v-5c0-1.1-0.1-1.7-0.2-2c-0.1-0.3-0.4-0.6-0.7-0.7c-0.3-0.2-0.7-0.3-1.1-0.3c-0.5,0-1,0.1-1.5,0.4
		c-0.4,0.2-0.7,0.6-0.9,1c-0.2,0.4-0.2,1.2-0.2,2.2v4.4H487v-9.8h3v1.4c1.1-1.1,2.4-1.7,4-1.7c0.7,0,1.3,0.1,1.9,0.3
		c0.6,0.2,1,0.5,1.3,0.8c0.3,0.3,0.5,0.7,0.6,1.1c0.1,0.4,0.2,1,0.2,1.7V364z"/>
	<path d="M511.2,361.2l3.2-0.4c0.1,0.5,0.4,0.9,0.8,1.1c0.4,0.3,1,0.4,1.8,0.4c0.8,0,1.4-0.1,1.9-0.4c0.3-0.2,0.4-0.4,0.4-0.7
		c0-0.2-0.1-0.4-0.2-0.5c-0.2-0.1-0.5-0.2-1.1-0.3c-2.6-0.5-4.2-0.9-4.9-1.3c-1-0.5-1.4-1.3-1.4-2.2c0-0.8,0.4-1.6,1.2-2.1
		c0.8-0.6,2.1-0.9,3.8-0.9c1.6,0,2.9,0.2,3.7,0.7c0.8,0.4,1.4,1.1,1.7,1.9l-3,0.5c-0.1-0.4-0.4-0.7-0.7-0.9
		c-0.4-0.2-0.9-0.3-1.5-0.3c-0.8,0-1.4,0.1-1.8,0.3c-0.2,0.1-0.4,0.3-0.4,0.5c0,0.2,0.1,0.3,0.3,0.5c0.3,0.2,1.3,0.4,3,0.7
		c1.7,0.3,2.9,0.7,3.6,1.1c0.7,0.5,1,1.1,1,1.9c0,0.9-0.5,1.7-1.4,2.3c-0.9,0.6-2.3,1-4.1,1c-1.6,0-2.9-0.3-3.9-0.8
		C512.1,362.9,511.5,362.1,511.2,361.2"/>
	<path d="M527.4,361.4h3.2v1.8c0,0.8-0.1,1.3-0.2,1.8c-0.2,0.4-0.5,0.8-0.9,1.2c-0.4,0.3-1,0.6-1.7,0.8l-0.6-1.1
		c0.6-0.2,1.1-0.4,1.4-0.7c0.3-0.3,0.4-0.7,0.4-1.2h-1.5V361.4z"/>
</g>
<rect x="553.8" y="350.5" width="3.4" height="13.5"/>
<g>
	<path d="M582.4,364h-3.2v-5c0-1.1-0.1-1.7-0.2-2c-0.1-0.3-0.4-0.6-0.7-0.7c-0.3-0.2-0.7-0.3-1.1-0.3c-0.5,0-1,0.1-1.5,0.4
		c-0.4,0.2-0.7,0.6-0.9,1c-0.2,0.4-0.2,1.2-0.2,2.2v4.4h-3.2v-9.8h3v1.4c1.1-1.1,2.4-1.7,4-1.7c0.7,0,1.4,0.1,1.9,0.3
		c0.6,0.2,1,0.5,1.3,0.8c0.3,0.3,0.5,0.7,0.6,1.1c0.1,0.4,0.2,1,0.2,1.7V364z"/>
	<path d="M607.2,357.1l-3.1,0.5c-0.1-0.5-0.3-0.9-0.7-1.1c-0.4-0.3-0.9-0.4-1.5-0.4c-0.8,0-1.4,0.2-1.9,0.7
		c-0.5,0.5-0.7,1.2-0.7,2.2c0,1.2,0.2,2,0.7,2.5c0.5,0.5,1.1,0.7,1.9,0.7c0.6,0,1.1-0.1,1.5-0.4c0.4-0.3,0.7-0.8,0.8-1.4l3.1,0.4
		c-0.3,1.2-0.9,2.1-1.9,2.6c-0.9,0.6-2.2,0.9-3.7,0.9c-1.8,0-3.2-0.5-4.2-1.4c-1-0.9-1.6-2.2-1.6-3.8c0-1.6,0.5-2.9,1.6-3.8
		c1.1-0.9,2.5-1.4,4.3-1.4c1.5,0,2.6,0.3,3.5,0.8C606.2,355.3,606.8,356.1,607.2,357.1"/>
</g>
<rect x="611.9" y="361.4" width="3.2" height="2.6"/>
<rect x="174.6" y="366.3" class="st0" width="442.2" height="3.7"/>
<g>
	<path d="M225.6,313.1c-0.1,9.8-7.1,17.8-27.4,17.8c-11.9,0-22.8-2.3-29.7-7l10-14c5.7,4.1,16.4,5.4,19.7,5.4c1.8,0,4-0.2,3.9-2.2
		c-0.1-1.3-2.2-2.3-3.9-2.7c-13.7-2.9-26.5-7.6-26.5-19.9c0-9.1,7.7-16.8,26.5-16.8c8.5,0,17.1,1.6,25.4,5.1l-9.5,13.6
		c-5-2.8-12.4-4.3-16-4.3c-3.4,0-5.3,0.8-5.3,2.5c0,1.3,0.2,1.4,5.4,2.7C212,296.4,225,299.3,225.6,313.1L225.6,313.1z"/>
	<path d="M169.1,323.7c6.6,4.3,16.9,6.7,29.1,6.7c21.9,0,26.8-9.3,26.9-17.1l-0.1-0.1l0-0.2c-0.5-13.1-12.3-16-26.1-19.3l-0.9-0.2
		c-5.2-1.3-5.7-1.5-5.7-3.1c0-1.3,1-2.9,5.8-2.9c3.3,0,10.5,1.3,15.8,4.2l8.9-12.8c-7.9-3.2-16.2-4.8-24.7-4.8
		c-16.3,0-26,6.1-26,16.3c0,12.3,13.2,16.7,26.1,19.5c1.9,0.4,4.2,1.5,4.3,3.1c0,0.7-0.2,1.3-0.6,1.7c-0.9,0.9-2.4,1-3.8,1
		c-2.4,0-13.3-0.9-19.6-5.2L169.1,323.7z M198.2,331.3c-12.6,0-23.2-2.5-30-7.1l-0.4-0.3l10.6-14.7l0.4,0.3c5.6,4,16.2,5.3,19.5,5.3
		c1.1,0,2.5-0.1,3.1-0.7c0.3-0.3,0.4-0.6,0.4-1.1c-0.1-1-1.8-1.9-3.6-2.3c-13.3-2.8-26.8-7.5-26.8-20.4c0-10.8,10.1-17.3,27-17.3
		c8.8,0,17.4,1.7,25.6,5.1l0.5,0.2l-10.1,14.4l-0.4-0.2c-5.2-2.9-12.4-4.3-15.7-4.3c-2.2,0-4.8,0.3-4.8,2c0,0.9,0,1,5,2.2l0.9,0.2
		c13.5,3.3,26.2,6.3,26.8,20l0.1,0.1v0.2C226,321.4,221.1,331.3,198.2,331.3"/>
</g>
<rect x="228.5" y="275.4" width="19.9" height="53.8"/>
<path d="M229,328.8h18.9v-52.9H229V328.8z M248.9,329.7H228V275h20.9V329.7z"/>
<g>
	<path d="M315.1,329.2l-3.6-18.5c-0.8-5.5-0.8-5.5-1.3-11.4c-0.6,5.9-0.6,5.9-2.6,11.4L293.5,347l-14-36.3c-1.9-5.5-2-5.5-2.6-11.4
		c-0.3,5.9-0.4,5.9-1.2,11.4l-3.6,18.5h-19.9l11.3-53.8h18.9l8.5,18.4c2.2,5.5,2.2,5.5,2.6,11.5c0.4-6,0.4-6,2.6-11.5l8.5-18.4h19
		l11.3,53.8H315.1z"/>
	<path d="M277.4,299.3c0.6,5.5,0.7,5.8,2.3,10.4l0.3,0.8l13.6,35.1l13.7-35.1c2-5.4,2-5.4,2.6-11.2l1,0c0.3,4.9,0.5,5.7,0.9,9
		l0.3,2.3l3.5,18.1h18.8l-11.1-52.9H305l-8.4,18.1c-2.1,5.4-2.1,5.4-2.6,11.3h-1c-0.4-5.9-0.4-5.9-2.6-11.4l-8.4-18.1h-18.2
		l-11.1,52.9h18.9l3.5-18.1l0.3-2c0.5-3.5,0.6-4.2,0.9-9.3L277.4,299.3z M293.5,348.3L278.8,310c-1-2.7-1.4-4-1.7-5.6
		c-0.1,1.4-0.3,2.4-0.5,4.3l-0.3,2.1l-3.7,18.9h-20.9l11.5-54.7h19.6l8.6,18.7c1.3,3.3,1.9,4.7,2.2,6.5c0.3-1.8,0.8-3.2,2.2-6.5
		l8.6-18.7H324l11.5,54.7h-20.7l-3.7-18.9l-0.3-2.3c-0.3-1.8-0.4-2.8-0.5-4.2c-0.3,1.9-0.8,3.2-2.1,6.6L293.5,348.3z"/>
	<path d="M397.8,329.2l-3.6-18.5c-0.8-5.5-0.8-5.5-1.3-11.4c-0.6,5.9-0.6,5.9-2.6,11.4L376.2,347l-14-36.3c-1.9-5.5-2-5.5-2.6-11.4
		c-0.3,5.9-0.4,5.9-1.2,11.4l-3.6,18.5h-19.9l11.3-53.8h18.9l8.5,18.4c2.2,5.5,2.2,5.5,2.6,11.5c0.4-6,0.4-6,2.6-11.5l8.5-18.4h19
		l11.3,53.8H397.8z"/>
	<path d="M360.1,299.3c0.5,5.5,0.7,5.8,2.3,10.4l0.3,0.8l13.6,35.1l13.7-35.1c2-5.4,2-5.4,2.6-11.2l1,0c0.3,4.9,0.5,5.7,0.9,9
		l0.3,2.3l3.5,18.1H417l-11.1-52.9h-18.3l-8.4,18.1c-2.1,5.4-2.1,5.4-2.6,11.3h-1c-0.4-5.9-0.4-5.9-2.6-11.4l-8.4-18.1h-18.2
		l-11.1,52.9h18.9l3.5-18.1l0.3-2c0.5-3.5,0.6-4.2,0.9-9.3L360.1,299.3z M376.2,348.3L361.4,310c-1-2.7-1.4-4-1.7-5.6
		c-0.1,1.4-0.3,2.4-0.5,4.3l-0.3,2.1l-3.7,18.9h-20.9l11.5-54.7h19.6l8.6,18.7c1.3,3.3,1.9,4.7,2.2,6.5c0.3-1.8,0.8-3.2,2.2-6.5
		L387,275h19.7l11.5,54.7h-20.7l-3.7-18.9l-0.3-2.4c-0.2-1.7-0.4-2.8-0.5-4.2c-0.3,1.9-0.8,3.2-2.1,6.6L376.2,348.3z"/>
	<path d="M456,289.1c-8.7,0-17.6,3.7-17.6,13.2c0,8.7,8.9,13.1,17.6,13.1c8.7,0,16.9-3.8,16.9-13.1C472.9,294.3,465,289.1,456,289.1
		 M456,330.9c-19.5,0.7-39.6-9.7-38.6-28.6c-0.4-18.5,19-29.9,38.6-28.6c19.4-0.6,38.8,10.2,37.9,28.8
		C494.2,320.6,475.7,332.1,456,330.9"/>
	<path d="M456,289.6c-8.3,0-17.1,3.4-17.1,12.8c0,8.3,8.6,12.7,17.1,12.7c7.9,0,16.4-3.3,16.4-12.7
		C472.4,295.1,465.4,289.6,456,289.6 M456,316c-9,0-18-4.7-18-13.6c0-10.1,9.7-13.7,18-13.7c9.9,0,17.4,5.9,17.4,13.7
		C473.4,312.4,464.4,316,456,316 M456,330.4c1,0.1,2,0.1,3,0.1c10.5,0,20.2-3.6,26.7-9.9c5.2-5,7.8-11.3,7.7-18.2
		c0.3-6.7-2.1-12.9-6.9-17.7c-6.9-6.9-18.4-10.9-30.5-10.6c-1-0.1-2-0.1-3-0.1c-10.7,0-21,3.8-27.6,10.2c-5.1,5-7.7,11.2-7.5,18
		c-0.4,6.7,2,12.7,6.7,17.5c6.7,6.7,17.7,10.7,29.6,10.7C454.8,330.5,455.4,330.4,456,330.4 M459,331.4c-1,0-2,0-3-0.1
		c-0.6,0-1.2,0-1.8,0c-12.1,0-23.4-4.1-30.2-11c-5-5-7.4-11.3-7-18.1c-0.2-7.1,2.5-13.5,7.8-18.7c6.7-6.6,17.3-10.5,28.3-10.5
		c1,0,2,0,3,0.1c0.5,0,1,0,1.5,0c11.8,0,22.9,4.1,29.6,10.9c5.1,5.1,7.5,11.4,7.2,18.4c0.1,7.1-2.7,13.7-8,18.8
		C479.7,327.7,469.7,331.4,459,331.4"/>
</g>
<polygon points="544,329.2 517.6,301.5 517.6,329.2 497.7,329.2 497.7,275.5 516.9,275.5 542.9,303.1 542.9,275.5 562.3,275.5 
	562.3,329.2 "/>
<path d="M544.2,328.8h17.6v-52.9h-18.4v28.4l-26.7-28.4h-18.5v52.9h18.9v-28.4L544.2,328.8z M562.8,329.7h-19l-0.1-0.2l-25.5-26.8
	v27h-20.9V275h19.9l0.1,0.2l25.2,26.7V275h20.4V329.7z"/>
<g>
	<path d="M620,313.1c-0.1,9.8-7.1,17.8-27.4,17.8c-11.9,0-22.8-2.3-29.7-7l10-14c5.7,4.1,16.4,5.4,19.7,5.4c1.8,0,4-0.2,3.9-2.2
		c-0.1-1.3-2.2-2.3-3.9-2.7c-13.7-2.9-26.5-7.6-26.5-19.9c0-9.1,7.7-16.8,26.5-16.8c8.5,0,17.1,1.6,25.4,5.1l-9.5,13.6
		c-5-2.8-12.4-4.3-16-4.3c-3.4,0-5.3,0.8-5.3,2.5c0,1.3,0.2,1.4,5.4,2.7C606.5,296.4,619.4,299.3,620,313.1L620,313.1z"/>
	<path d="M563.6,323.7c6.6,4.3,16.9,6.7,29.1,6.7c21.9,0,26.8-9.3,26.9-17.1l-0.1-0.1l0-0.2c-0.5-13.1-12.3-16-26.1-19.3l-0.9-0.2
		c-5.2-1.3-5.7-1.5-5.7-3.1c0-1.3,1-2.9,5.8-2.9c3.3,0,10.5,1.3,15.8,4.2l8.9-12.8c-7.9-3.2-16.2-4.8-24.7-4.8
		c-16.3,0-26,6.1-26,16.3c0,12.3,13.2,16.7,26.1,19.5c1.9,0.4,4.2,1.5,4.3,3.1c0,0.7-0.2,1.3-0.6,1.7c-0.9,0.9-2.4,1-3.8,1
		c-2.4,0-13.3-0.9-19.6-5.2L563.6,323.7z M592.6,331.3c-12.6,0-23.2-2.5-30-7.1l-0.4-0.3l10.6-14.7l0.4,0.3c5.6,4,16.2,5.3,19.5,5.3
		c1.1,0,2.5-0.1,3.1-0.7c0.3-0.3,0.4-0.6,0.4-1.1c-0.1-1-1.8-1.9-3.6-2.3c-13.3-2.8-26.8-7.5-26.8-20.4c0-10.8,10.1-17.3,27-17.3
		c8.8,0,17.4,1.7,25.6,5.1l0.5,0.2l-10.1,14.4l-0.4-0.2c-5.2-2.9-12.4-4.3-15.7-4.3c-2.2,0-4.8,0.3-4.8,2c0,0.9,0,1,5,2.2l0.9,0.2
		c13.5,3.3,26.2,6.3,26.8,20l0.1,0.1l0,0.2C620.4,321.4,615.6,331.3,592.6,331.3"/>
	<path class="st1" d="M146.5,313.6c1-3.4,2-6.6,2,2c-0.7,0-1.3,0-2-0.1V313.6z"/>
	<path class="st1" d="M146.2,328.3l0.9,0.2c-1.6,7.5-3.5,14.7-6.2,21c0,0,0,0,0,0c-0.5,0.9-1.1,1.8-1.7,2.7c-3.9,5.8-8.9,11-14,16
		c-3.6-0.6-9.9,1.1-16.4,2.8c-6.7,1.8-13.6,3.8-18.2,3.7c-0.2,0.8,0,1.2,0.4,1.5c0.4,0.3,1,0.3,1.5,0.4c-2.9,2-7,2.2-11,1.6
		c-1.4-0.2-2.8-0.6-4.2-1c0.3-0.4,0.5-0.9,0.6-1.5c-3.7,0.1-10.7-1.5-8.7-3.7c4.8,2.6,15.5,5.9,21.3,1.8c-1.2-0.1-2.3-0.3-1.9-1.8
		c9.1,0.2,27.8-7.8,34.8-6.5C136,357.9,142.5,344.4,146.2,328.3"/>
	<path class="st1" d="M67.2,290.6c1.8-0.1,3.2-0.6,3.9-1.8c-1.4-0.5-2.4-1.4-3.9-1.8V290.6z M69.2,277.6c-3.9,1.1-9.5-4.4-8.7-1.8
		c3.5,1.1-7.1,1-2.9,2.8c3-1.5,6.7-0.2,6.2,2c-0.2,0-0.3,0.2-0.4,0.8c0.2-0.3,0.3-0.6,0.4-0.8c0.6-0.1,1.8,1.8,3.5,0.8
		C66.1,278.4,68.7,279.1,69.2,277.6 M79.8,347.9c2.1-4.8,4.8-9,5.8-14.8c-4.7-1.6-11.8-1-12.6-6.5c-5.2,0.2-5.4-2.9-7.7-3.7
		c-6.3-2.2-13.5,1.8-16,0.2c-0.9-0.6-1.2-2-0.5-4.8c-5.6,1.2-2.9-2.3-1.9-4.6c-3.8-0.9-2.4,3.2-6.8,1.8c-0.2-3.2,0.3-5.9,1.9-7.4
		c2.4-0.6,8.9-2.2,9.7,2.8c1.2-9.4,8.2-13.7,12.6-17.6c-2.6,0.6-1.9-1.9-2.9-2.8c2.4,0.1,3-1.5,4.8-1.8c-2.9-5.7-3.8-4.1-8.7-5.5
		c-0.5,3.4-0.4,5.3-2.9,8.3c1.7-3.6-5.5-3.2-1.9-5.5c-1.2,1.3,5.5-5,3.9-6.5c-1,2.3-1.7-3.2-3.9-2.8c-1.7,0.6,0.1,4.4-1.9,4.6
		c0.2-2.6-3.6-2.2-1-4.6c-4.2,0.6-9.1,5.4-8.7,7.4c2.2,5.9-14.7,17.6-8.7,25c0.2-1.4-0.4-3.4,1-3.7c-0.7,4,1.6,5.2,1,9.2
		c5.1,2.9,10.8,5.6,14.7,8.8c1.5,1.3,2.8,2.6,3.7,4.1c-6.5,5.2,1.1,13.7,5.8,16.6c0.9,9.9-4.1,17.6,2.9,22.2
		c-4-10,12.7-7.3,12.6-16.6C76,349.2,76.8,347.5,79.8,347.9 M84.6,277.6c-3.1,0.2-2.4-3.3-3.9-4.6c-5.2-0.3-8.5,1.1-12.6,1.8
		c1.7,3.2,4,4.2,1,7.4c0.8,0.2,1.1,0.8,1,1.8C76.9,283.8,80.2,280.2,84.6,277.6 M134,345.1c0.9-3.2,4.2-4,3.9-8.3
		c-3.1,0.1-3.1,3.2-4.8,4.6c0-0.5-0.8-1-1,0C134.7,340.8,131.3,345.8,134,345.1 M146.5,315.4v11.2c-0.1,0.6-0.2,1.1-0.4,1.7
		c-3.7,16.1-10.1,29.6-22.8,37.1c-7.1-1.3-25.7,6.7-34.8,6.5c-0.4,1.6,0.8,1.7,1.9,1.8c-5.8,4.1-16.5,0.7-21.3-1.8
		c-2,2.2,5,3.8,8.7,3.7c-0.2,0.6-0.4,1.1-0.7,1.5c-2.4-0.7-4.6-1.6-6.1-2.4c-1,1.1,0.3,2.1,2.2,2.7c0.9,0.3,2,0.6,3.1,0.7
		c-1.4,1.3-3.4,1.4-5.5,1.1c-4.3-1.1-9.2-2.8-15.2-5.5c-9.1-4.4-16.9-10.8-22.9-19l0,0c-5.2-7.9-8.6-17.1-10-27.2
		c0,4.6,0.8,8.8,2,12.7c-1.9-4.8-3.2-10-4-15.5v-9.2c4.4-22.5,13.9-37.1,29.4-46c-15.3,9.2-27.5,33-27.5,48.8
		c6.7-34,24.8-49.9,58-55.5c-19.3,0-3.4,3.4-22.7,3.4c-1.7,0.4-3.5,1-5.1,1.8c7.3-3.7,16-6.3,25.9-8h9.7
		c22.1,2.8,38.3,13.7,45.3,24.9c-3.4-4.4-8.3-8.7-14.4-12.4c-7.9-5.7-17.5-9.7-29-9.7c11.4,1.5,21.2,5,29,9.7
		c5.4,3.9,9.9,8.6,13.5,13.4c-5.1-2.5-12-6.7-16.6-5.8c-0.2-0.1-0.5-0.2-0.7-0.3c0.4-3.3-3.4-2.6-4.9-4.1c-3.2,3.5-5.8,6.5-1.9,9.5
		c0,0.3,0.1,0.6,0.3,0.9c-0.8,0.4-2.1,1-3.4,1.8c-0.5-1.1-1-2.1-1.7-3c-1.6,1.4-0.5,2.4,0,4.1c-2.1,1.6-3.4,3.3-1,4.2
		c-4.4-1.4-5.5,0.2-5.8,4.6c0.8,0.1,1.5,0.3,2.2,0.5c-0.1,0.4-0.2,0.8-0.2,1.3c0,0-0.1,0-0.1,0c-7,6.5-8.8,20.2-3.8,24.4
		c0.6,1.5,1.6,2.7,2.8,3.4c2.9,1.5,7.7-2.3,12.7-0.1c0.5,6.9,2.1,18,2.8,24.2c0.5-0.1,1.1-0.3,1.6-0.4c0.1,1.2,0.3,2.3,0.4,3.2
		c16.3-3.8,13.5-20.7,23.2-31.4c0-1.2-2.6,0.3-4-0.2c0.3-0.4,0.6-0.8,0.9-1.2c3.3,0.2,7.2-2.7,8.9-5c0.3,2.2,0.8,0.9,1.4-1.1
		C146.2,315.4,146.4,315.4,146.5,315.4"/>
	<path class="st2" d="M146.5,313.6v1.8c-0.2,0-0.3,0-0.5-0.1C146.2,314.8,146.4,314.2,146.5,313.6"/>
	<path class="st2" d="M146.5,312.7v0.9c-0.2,0.6-0.3,1.2-0.5,1.8c-0.5-0.1-1-0.2-1.5-0.3c0-0.7,0-1.5,0-2.4
		C145.1,312.7,145.8,312.7,146.5,312.7"/>
	<path class="st0" d="M147,328.5c0,7.8-2.5,14.7-6.2,21C143.5,343.2,145.4,336,147,328.5"/>
	<path class="st0" d="M146,315.4c-0.6,2-1.1,3.3-1.4,1.1c0,0,0,0,0,0c0,0,0,0,0,0c0-0.4-0.1-0.8-0.1-1.4
		C145,315.2,145.5,315.3,146,315.4"/>
	<path class="st1" d="M144.6,316.5C144.6,316.5,144.6,316.5,144.6,316.5C144.6,316.5,144.6,316.5,144.6,316.5
		C144.6,316.5,144.6,316.5,144.6,316.5"/>
	<path class="st2" d="M144.6,316.5C144.6,316.5,144.6,316.5,144.6,316.5c-1.7,2.3-5.6,5.2-8.9,5.1c0.4-0.5,0.7-0.9,1.1-1.4
		c0-1.7-4.9,1.8-4.8-1.8c3,1.4,7.2-0.9,9.6-3.4C142.7,315.3,143.8,315.7,144.6,316.5"/>
	<path class="st0" d="M124.3,300.8c1.6-3.5,5.6,3.2,6.8,0c-0.8-0.2-1.1-0.8-1-1.8c-3.5,1.9-3.6-1.9-6.8-2.8
		C122,297.3,121.8,300.7,124.3,300.8 M135.1,288.8c8.3,11.9,11.4,23.3,9.3,23.3v0.5c-4.2-0.5-6.8-2.6-9.5-4.5c0.1,1.5,0.9,2.4,2,3
		c0.2,2.5,2.5,3.1,4.7,3.8c-2.4,2.4-6.6,4.8-9.6,3.4c0,3.6,4.9,0.2,4.8,1.8c-0.4,0.4-0.8,0.9-1.1,1.4c-0.6,0-1.2-0.2-1.7-0.4
		c0,1,0.3,1.4,0.9,1.6c-7.1,10.3-6.3,24.3-19.6,28.4c-0.9-7-2.2-16.9-2.5-22.7c-0.6-0.5-1.2-0.8-1.8-1.1c0-0.6-0.1-1.2-0.1-1.7
		c-5.7-4.2-11.3,0.8-14.5-0.9c-0.3-0.2-0.6-0.4-0.9-0.6c-2.3-5.7-0.1-16.2,5.7-21.6c4.2,0.3,6.3-1.3,10.4-1.1c0.5,1.1,1,1.7,1.7,2.2
		c2.3,6.6,8.5,1.5,15,5.3v-3.7c-0.7-0.2-1.3-0.4-2-0.7v-2.1c-2.9-0.9-5.8-1.9-6.8-4.6c-1.4,0.4,0.4,1.2,0,2.8
		c-3.3-1.1-4.1-4.7-6.8-6.5c-1.6,0.5,0.2,1.9,1.7,2.9c-0.5,0.3-0.4,0.8,0.1,1.3c-0.8,0-1.8-0.4-2.7-1.1c0-0.1,0-0.2,0-0.3
		c-0.1,0.1-0.1,0.1-0.2,0.2c-1-0.8-1.8-1.9-1.8-3c-1.2,1.1-3.7,0.9-5,1.8c-2.4-0.9-0.6-2.9,1.8-4.5h0.3c0-0.1,0-0.1,0-0.2
		c1.9-1.3,4.2-2.4,4.9-2.6c-1.4-0.9-2.2-1.7-2.6-2.6c0.3-0.1,0.5-0.2,0.7-0.2c-0.3-0.2-0.7-0.4-0.9-0.7c-0.3-2.1,1.6-4.3,3.9-6.7
		c0.7,0.7,1.9,0.9,3,1.3c0,0.2,0,0.3-0.1,0.5c0.3-0.1,0.5-0.2,0.8-0.2c0.9,0.5,1.5,1.3,1.1,3C122.2,281.5,129.7,286.2,135.1,288.8"
		/>
	<path class="st2" d="M144.5,315c0,0.6,0.1,1,0.1,1.4c-0.7-0.8-1.9-1.2-3-1.5c0.2-0.2,0.4-0.5,0.6-0.7
		C142.9,314.5,143.7,314.8,144.5,315"/>
	<path class="st2" d="M144.4,312.6c0,1,0,1.8,0,2.4c-0.8-0.2-1.6-0.5-2.3-0.8c0.2-0.2,0.3-0.4,0.4-0.6c-1.2-1.2-3.4-1.6-5.1-2.3
		c-0.2-0.2-0.4-0.3-0.7-0.5c0,0.1,0,0.1,0,0.2c-1.1-0.6-1.9-1.4-2-3C137.7,310,140.3,312.1,144.4,312.6"/>
	<path class="st1" d="M142.7,313.7c-0.1,0.2-0.3,0.4-0.4,0.6c-1.7-0.8-3.2-1.8-4.7-2.8C139.3,312.1,141.5,312.4,142.7,313.7"/>
	<path class="st1" d="M137.5,311.4c1.5,1,2.9,2.1,4.7,2.8c-0.2,0.2-0.4,0.5-0.6,0.7c-2.2-0.7-4.5-1.3-4.7-3.8
		C137.1,311.2,137.3,311.3,137.5,311.4"/>
	<path class="st0" d="M140.8,349.5c-0.3,0.8-0.7,1.5-1,2.2c-3.3,6.9-7.9,12.6-14.5,16.5c-0.1,0-0.1,0-0.2,0c5.1-5,10-10.2,14-16
		C139.6,351.3,140.2,350.4,140.8,349.5"/>
	<path class="st2" d="M134.8,322.7c1.4,0.5,4-1,4,0.2c-9.7,10.7-7,27.6-23.2,31.4c-0.1-1-0.2-2.1-0.4-3.2
		C128.6,347,127.7,333,134.8,322.7"/>
	<path class="st1" d="M137.8,336.8c0.3,4.3-3,5.1-3.9,8.3c-2.6,0.7,0.7-4.4-1.9-3.7c0.2-1,1-0.5,1,0
		C134.7,340,134.7,336.9,137.8,336.8"/>
	<path class="st2" d="M136.9,310.9c0.2,0.2,0.4,0.3,0.7,0.5c-0.2-0.1-0.4-0.2-0.6-0.3C136.9,311,136.9,311,136.9,310.9"/>
	<path class="st1" d="M136.9,289.7c-0.6-0.2-1.1-0.5-1.8-0.8c-0.7-1-1.4-1.9-2.1-2.9c0.7,0.4,1.3,0.7,1.9,0.9
		c-0.3-0.6-0.7-1.3-1.1-1.9C135,286.5,136,288.1,136.9,289.7"/>
	<path class="st1" d="M135.7,321.5c-0.3,0.4-0.6,0.8-0.9,1.2c-0.5-0.2-0.9-0.6-0.9-1.6C134.5,321.4,135.1,321.5,135.7,321.5"/>
	<path class="st2" d="M133.8,284.9c0.4,0.6,0.8,1.3,1.1,1.9c-0.6-0.3-1.3-0.6-1.9-0.9c-3.7-4.8-8.2-9.5-13.5-13.3
		C125.5,276.2,130.4,280.5,133.8,284.9"/>
	<path class="st1" d="M133,285.9c0.7,1,1.5,1.9,2.1,2.9c-5.4-2.7-12.9-7.3-17.6-5.6c0.4-1.7-0.2-2.5-1.1-3
		C121,279.3,127.9,283.4,133,285.9"/>
	<path class="st1" d="M131.1,300.8c-1.2,3.2-5.1-3.5-6.8,0c-2.5-0.1-2.3-3.4-1-4.6c3.2,0.9,3.2,4.7,6.8,2.8
		C130,300,130.3,300.5,131.1,300.8"/>
	<path class="st1" d="M128.2,305.4v3.7c-6.4-3.9-12.7,1.2-15-5.3c3,2,7.9-0.5,13,2.5v-1.6C126.9,305,127.5,305.2,128.2,305.4"/>
	<path class="st2" d="M126.2,304.7v1.6c-5.1-3-10-0.5-13-2.5c-0.2-0.6-0.4-1.3-0.5-2.1c-0.4-0.1-0.8-0.1-1.2-0.1
		c-0.3-0.7-0.6-1.6-0.8-2.7c-1.6-0.2-2.9-0.2-4,0c1.3-0.9,3.6-0.7,4.8-1.6c0.1,0.1,0.1,0.1,0.2,0.2c0.4,2.4,4.6,5,5.8,3.4
		c-0.6-0.4-2.3-1.4-3.1-2.3c0.5,0,0.9-0.2,1.1-0.5c-0.3-0.2-0.7-0.4-1.2-0.8c0.1,0,0.2-0.1,0.3-0.1c2.7,1.8,3.4,5.3,6.8,6.5
		c0.4-1.6-1.4-2.4,0-2.8C122.2,302.9,124.1,303.9,126.2,304.7"/>
	<path class="st2" d="M126.2,302.6v2.1c-2.2-0.8-4.1-1.8-4.8-4c-1.4,0.4,0.4,1.2,0,2.8c-3.3-1.1-4.1-4.7-6.8-6.5
		c-0.1,0-0.2,0.1-0.3,0.1c-1.5-1-3.2-2.5-1.7-2.9c2.7,1.8,3.4,5.3,6.8,6.5c0.4-1.6-1.4-2.4,0-2.8
		C120.4,300.7,123.3,301.7,126.2,302.6"/>
	<path class="st0" d="M125.1,368.2c-1.1,1-2.1,2.1-3.2,3.1c-16,6.9-24.6,10.3-34.9,10c-2.7-0.1-5.4-0.2-8.4-0.6
		c0.5-0.6,1-1.3,1.2-2.3c-1,0-2.2-0.1-3.4-0.3c0.3-0.3,0.6-0.6,0.8-1c1.3,0.4,2.7,0.7,4.2,1c4,0.7,8.1,0.5,11-1.6
		c-0.6,0-1.2-0.1-1.6-0.4c-0.4-0.3-0.6-0.7-0.4-1.5c4.6,0.1,11.5-1.8,18.2-3.7C115.2,369.3,121.5,367.6,125.1,368.2"/>
	<path class="st2" d="M117.5,300.8c-1.2,1.7-5.4-0.9-5.8-3.4c0.9,0.7,1.9,1.1,2.7,1.1C115.3,299.4,116.9,300.4,117.5,300.8"/>
	<path class="st2" d="M116.4,280.2c-0.3,0-0.6,0.1-0.8,0.2c0-0.2,0.1-0.4,0.1-0.5C115.9,279.9,116.2,280,116.4,280.2"/>
	<path class="st1" d="M110.7,275.8c1.5,1.5,5.3,0.8,4.9,4.1c-1-0.4-2.2-0.6-3-1.3c-2.2,2.5-4.2,4.6-3.9,6.7
		C104.9,282.2,107.5,279.3,110.7,275.8"/>
	<path class="st1" d="M115.6,298c-0.3,0.4-0.7,0.5-1.1,0.5c-0.5-0.5-0.6-1-0.1-1.3C114.8,297.5,115.3,297.8,115.6,298"/>
	<path class="st1" d="M115.2,351.1c-0.5,0.2-1,0.3-1.6,0.4c-0.7-6.2-2.3-17.2-2.8-24.2c0.6,0.3,1.2,0.6,1.8,1.1
		C113,334.2,114.3,344.2,115.2,351.1"/>
	<path class="st2" d="M112.7,301.7c0.1,0.8,0.3,1.5,0.5,2.1c-0.7-0.5-1.3-1.1-1.7-2.2C111.9,301.6,112.3,301.6,112.7,301.7"/>
	<path class="st1" d="M111.7,297.1c0,0.1,0,0.2,0,0.3c-0.1-0.1-0.2-0.1-0.2-0.2C111.6,297.2,111.7,297.1,111.7,297.1"/>
	<path class="st0" d="M111.5,301.6c-4.1-0.3-6.2,1.4-10.4,1.1c-5.9,5.4-8.1,15.8-5.7,21.6c-5-4.2-3.2-17.9,3.8-24.4c0,0,0.1,0,0.1,0
		c0,0.3-0.1,0.6-0.1,0.9c2.3,0.3,3.6,1.5,6.8,0.9c-0.3-1.5,0.1-2.3,0.8-2.8c1.2-0.2,2.5-0.2,4,0C110.9,300,111.2,300.8,111.5,301.6"
		/>
	<path class="st2" d="M110.7,325.7c0,0.5,0.1,1.1,0.1,1.7c-5-2.2-9.8,1.7-12.7,0.1c-1.3-0.7-2.2-1.9-2.8-3.4
		c0.3,0.2,0.6,0.4,0.9,0.6C99.4,326.5,105.1,321.5,110.7,325.7"/>
	<path class="st2" d="M109.8,294.3c0,1,0.8,2.1,1.8,3c-1.3,0.9-3.6,0.8-4.8,1.6c-2.5,0.3-4.4,1.2-7.5,0.9c0.1-0.5,0.1-0.9,0.2-1.3
		c1.2,0.4,2.5,0.7,4.5,0.4c-0.3-1.5,0-2.3,0.8-2.8c0.1,0,0.1,0,0.2,0.1c-0.1,0-0.1,0-0.2-0.1C106.1,295.1,108.6,295.3,109.8,294.3"
		/>
	<path class="st2" d="M109.8,285.9c-0.2,0-0.4,0.1-0.6,0.2c-0.1-0.3-0.2-0.6-0.3-0.9C109.1,285.5,109.4,285.7,109.8,285.9"/>
	<path class="st1" d="M109.1,286.2c0.4,0.9,1.2,1.7,2.6,2.6c-0.7,0.2-2.9,1.3-4.9,2.6c-0.3-1.2-0.7-2.3-1.1-3.3
		C107,287.2,108.3,286.5,109.1,286.2"/>
	<path d="M106.8,291.3c0,0.1,0,0.1,0,0.2h-0.3C106.7,291.4,106.7,291.4,106.8,291.3"/>
	<path class="st1" d="M106.8,291.3c-0.1,0.1-0.2,0.1-0.3,0.2H104c0.2-0.9,0.2-1.7,0-2.3c0.5-0.4,1.1-0.8,1.7-1.2
		C106.2,289,106.5,290.2,106.8,291.3"/>
	<path class="st2" d="M104,291.5h2.6c-2.4,1.7-4.2,3.6-1.8,4.5c0,0,0,0,0,0c-3.4-1.1-4.7-0.2-5.3,2.4c-0.7-0.2-1.4-0.4-2.2-0.5
		c0.3-4.5,1.4-6.1,5.8-4.6c-2.5-0.8-1.1-2.6,1-4.2C104.1,289.8,104.2,290.6,104,291.5"/>
	<path class="st1" d="M106.7,298.9c-0.7,0.5-1.1,1.3-0.8,2.8c-3.1,0.5-4.5-0.6-6.8-0.9c0-0.3,0-0.6,0.1-0.9
		C102.3,300,104.2,299.2,106.7,298.9"/>
	<path class="st2" d="M105,296.1c-0.1,0-0.1,0-0.2-0.1c0,0,0,0,0,0C104.8,296.1,104.9,296.1,105,296.1"/>
	<path class="st1" d="M104,285c0.7,0.9,1.2,1.9,1.7,3c-0.6,0.4-1.2,0.8-1.7,1.2C103.5,287.5,102.4,286.5,104,285"/>
	<path class="st1" d="M104.7,296.1c-0.7,0.5-1.1,1.3-0.8,2.8c-2,0.3-3.3,0-4.5-0.4C100,295.9,101.4,295,104.7,296.1"/>
	<path class="st2" d="M119.4,272.6c-7.8-4.7-17.6-8.3-29-9.7C101.9,262.9,111.6,266.9,119.4,272.6"/>
	<path class="st0" d="M80.8,273c1.5,1.3,0.8,4.8,3.9,4.6c-4.4,2.6-7.7,6.2-14.5,6.5c0.2-1.1-0.2-1.6-1-1.8c3-3.2,0.7-4.2-1-7.4
		C72.3,274.2,75.6,272.7,80.8,273"/>
	<path class="st0" d="M85.6,333.1c-1,5.8-3.7,10-5.8,14.8c-3-0.4-3.8,1.3-5.8,1.8c0.1,9.3-16.6,6.6-12.6,16.6
		c-7-4.6-2.1-12.3-2.9-22.2c-4.7-2.9-12.4-11.4-5.8-16.6c-0.9-1.5-2.1-2.8-3.7-4.1l0.3-0.3c2.5,1.6,9.7-2.4,16-0.2
		c2.4,0.8,2.5,3.9,7.7,3.7C73.8,332.1,80.9,331.5,85.6,333.1"/>
	<path class="st1" d="M76.4,378.1c1.2,0.2,2.4,0.3,3.4,0.3c-0.3,1-0.7,1.7-1.2,2.3c-2.4-0.3-4.9-0.8-7.7-1.5
		C73,379.6,75,379.4,76.4,378.1C76.4,378.2,76.4,378.1,76.4,378.1"/>
	<path class="st0" d="M77.2,377.2c-0.2,0.4-0.5,0.7-0.8,1c0,0,0,0,0,0c-1.1-0.2-2.1-0.4-3.1-0.7c-2-0.7-3.2-1.6-2.2-2.7
		C72.6,375.5,74.8,376.4,77.2,377.2"/>
	<path class="st0" d="M78.6,380.7c-1.4,1.5-3.5,1.7-5.8,1.3c-3.2-0.5-6.6-2-8.4-2.7c-6.9-2.4-13.2-5.9-18.8-10.4
		c3.7,1.9,7,3.4,10.1,4.8c2.2,1.1,4.4,2,6.7,2.8c1.9,0.6,5.3,2.2,8.5,2.7C73.7,380,76.2,380.4,78.6,380.7"/>
	<path class="st0" d="M55.6,373.8c6,2.7,11,4.4,15.2,5.5c-3.2-0.5-6.6-2-8.5-2.7C60.1,375.7,57.8,374.8,55.6,373.8"/>
	<path class="st2" d="M58,266.2c19.3,0,3.4-3.4,22.8-3.4c-33.2,5.5-51.3,21.5-58,55.5c0-15.9,12.2-39.6,27.5-48.8
		c0.2-0.1,0.4-0.2,0.7-0.4c0.7-0.4,1.3-0.7,2-1c0,0,0,0,0,0C54.6,267.3,56.3,266.6,58,266.2"/>
	<path class="st0" d="M60.5,275.8c-0.8-2.6,4.8,3,8.7,1.8c-0.4,1.4-3,0.8-1.9,3.7c-1.7,1-2.9-0.9-3.5-0.8c0.5-2.2-3.1-3.5-6.2-2
		C53.3,276.8,64,276.9,60.5,275.8"/>
	<path class="st0" d="M71.1,288.7c-0.6,1.2-2.1,1.7-3.9,1.8v-3.7C68.7,287.4,69.7,288.3,71.1,288.7"/>
	<path class="st0" d="M61.4,290.6c1,0.9,0.3,3.4,2.9,2.8c-4.4,3.8-11.4,8.2-12.6,17.6c-0.8-5-7.2-3.4-9.7-2.8
		c-1.7,1.5-2.1,4.2-1.9,7.4c4.3,1.4,3-2.7,6.8-1.8c-0.9,2.3-3.7,5.8,1.9,4.6c-0.7,2.8-0.4,4.2,0.5,4.8l-0.3,0.3
		c-3.9-3.3-9.6-6-14.7-8.8c0.7-4-1.6-5.2-1-9.2c-1.3,0.3-0.8,2.3-1,3.7c-6-7.4,10.9-19.1,8.7-25c-0.4-2,4.5-6.8,8.7-7.4
		c-2.7,2.5,1.1,2,1,4.6c2-0.2,0.3-4.1,1.9-4.6c2.2-0.5,2.9,5.1,3.9,2.8c1.6,1.5-5.1,7.8-3.9,6.5c-3.6,2.3,3.7,1.9,1.9,5.5
		c2.5-3,2.4-4.9,2.9-8.3c4.9,1.4,5.8-0.2,8.7,5.5C64.4,289.1,63.8,290.7,61.4,290.6"/>
	<path class="st1" d="M63.7,280.5c-0.1,0.3-0.2,0.5-0.4,0.8C63.4,280.8,63.5,280.5,63.7,280.5"/>
	<path class="st1" d="M52.8,268.1c-0.7,0.3-1.3,0.7-2,1C51.5,268.7,52.2,268.4,52.8,268.1"/>
	<path class="st1" d="M55.6,373.8c-3-1.3-6.4-2.9-10.1-4.8c-1.2-1-2.4-2.1-3.6-3.2c-1.9-2.4-4.2-4.7-6.5-7.2c-1-1.2-1.9-2.5-2.7-3.8
		C38.7,362.9,46.6,369.4,55.6,373.8"/>
	<path class="st0" d="M45.6,369c-0.7-0.3-1.4-0.7-2.1-1.1c-0.5-0.7-1-1.4-1.5-2.1C43.1,366.9,44.3,368,45.6,369"/>
	<path class="st0" d="M42,365.8c-1.9-1.8-3.7-3.8-5.4-5.8c-0.4-0.5-0.7-0.9-1.1-1.4C37.8,361.1,40.1,363.4,42,365.8"/>
	<path class="st0" d="M32.8,354.8c0.9,1.3,1.8,2.6,2.7,3.8c-2-2.2-4-4.6-5.7-7.4c-2-3.4-3.8-7-5.1-11
		C26.8,345.5,29.5,350.4,32.8,354.8L32.8,354.8z"/>
	<path class="st0" d="M22.7,327.6c1.4,10.1,4.9,19.4,10,27.2c-3.2-4.4-5.9-9.2-8-14.5c0,0,0,0,0,0C23.5,336.3,22.7,332.1,22.7,327.6
		"/>
	<path class="st0" d="M84.3,263.3c-33,0-59.9,26.3-59.9,58.6c0,32.3,26.9,58.6,59.9,58.6c33,0,59.9-26.3,59.9-58.6
		C144.2,289.5,117.4,263.3,84.3,263.3 M84.3,384.1c-35.2,0-63.8-27.9-63.8-62.3s28.6-62.3,63.8-62.3c35.2,0,63.8,27.9,63.8,62.3
		S119.5,384.1,84.3,384.1"/>
	<path d="M72.3,300c0,1.5-0.3,2.9-0.8,4.3c-0.5,1.3-1.4,2.5-2.7,3.5c-1.2,1-2.9,1.8-4.9,2.4c-2,0.6-4.5,0.9-7.4,0.9
		c-3.4,0-6.7-0.4-9.6-1.1c-3-0.7-5.5-1.8-7.5-3.3l5.8-8.6c0.8,0.6,1.8,1.2,2.9,1.6c1.1,0.4,2.2,0.8,3.3,1c1.1,0.3,2.1,0.5,3,0.6
		c0.9,0.1,1.6,0.2,2.1,0.2c0.5,0,1.1-0.1,1.6-0.2c0.5-0.2,0.7-0.5,0.7-1.2c0-0.4-0.3-0.8-0.8-1.1c-0.5-0.3-1-0.5-1.5-0.6
		c-2-0.5-3.9-1-5.7-1.6c-1.8-0.6-3.5-1.4-4.9-2.4c-1.4-1-2.5-2.1-3.4-3.5c-0.9-1.4-1.3-3-1.3-4.9c0-1.4,0.3-2.7,0.9-4
		c0.6-1.2,1.5-2.3,2.7-3.3c1.2-1,2.8-1.7,4.7-2.3c1.9-0.6,4.2-0.8,6.9-0.8c2.5,0,4.9,0.3,7.3,0.8c2.5,0.5,4.9,1.3,7.3,2.4l-5.5,8.4
		c-0.7-0.4-1.5-0.8-2.4-1.2c-0.8-0.3-1.7-0.6-2.5-0.9c-0.8-0.2-1.6-0.4-2.4-0.5c-0.8-0.1-1.4-0.2-1.9-0.2c-2,0-3,0.5-3,1.5
		c0,0.2,0,0.3,0.1,0.5c0,0.1,0.2,0.2,0.4,0.4c0.2,0.1,0.5,0.2,0.9,0.4c0.4,0.1,1,0.3,1.7,0.5c2,0.5,3.9,1.1,5.8,1.6
		c1.8,0.6,3.5,1.3,5,2.1c1.4,0.9,2.6,2,3.5,3.4C71.7,296.1,72.1,297.8,72.3,300L72.3,300z"/>
	<path class="st1" d="M40,306.5c1.9,1.3,4.2,2.3,7,2.9c2.9,0.7,6.1,1.1,9.5,1.1c2.9,0,5.3-0.3,7.3-0.9c1.9-0.6,3.5-1.3,4.7-2.3
		c1.2-0.9,2-2,2.5-3.3c0.5-1.2,0.8-2.6,0.8-3.9l0-0.2c-0.1-2-0.5-3.7-1.4-5c-0.9-1.3-2-2.4-3.4-3.2c-1.4-0.9-3-1.6-4.8-2.1
		c-1.8-0.5-3.8-1.1-5.8-1.6c-0.7-0.2-1.3-0.3-1.8-0.5c-0.5-0.1-0.8-0.3-1-0.4c-0.3-0.2-0.5-0.4-0.5-0.6c-0.1-0.2-0.1-0.4-0.1-0.6
		c0-0.9,0.6-2,3.5-2c0.5,0,1.2,0.1,2,0.2c0.8,0.1,1.6,0.3,2.5,0.5c0.9,0.2,1.7,0.5,2.6,0.9c0.7,0.3,1.4,0.6,2,0.9l4.9-7.6
		c-2.2-0.9-4.4-1.7-6.7-2.1c-2.4-0.5-4.8-0.8-7.2-0.8c-2.6,0-4.9,0.3-6.8,0.8c-1.8,0.5-3.4,1.3-4.6,2.2c-1.2,0.9-2,2-2.6,3.1
		c-0.6,1.2-0.8,2.5-0.8,3.8c0,1.8,0.4,3.4,1.2,4.7c0.8,1.3,1.9,2.4,3.2,3.3c1.4,0.9,3,1.7,4.7,2.3c1.8,0.6,3.7,1.1,5.7,1.6
		c0.6,0.1,1.1,0.4,1.6,0.7c0.8,0.5,1,1,1,1.4c0.1,1.1-0.6,1.5-1,1.6c-0.5,0.2-1.1,0.2-1.7,0.2c-0.5,0-1.2-0.1-2.2-0.2
		c-1-0.1-2-0.3-3.1-0.6c-1.1-0.3-2.2-0.6-3.4-1c-1-0.4-1.8-0.8-2.6-1.3L40,306.5z M56.5,311.5c-3.5,0-6.8-0.4-9.7-1.1
		c-3-0.7-5.6-1.8-7.7-3.4l-0.4-0.3l6.3-9.4l0.4,0.3c0.8,0.6,1.7,1.1,2.7,1.5c1.1,0.4,2.2,0.7,3.2,1c1.1,0.3,2.1,0.4,3,0.5
		c0.9,0.1,1.6,0.2,2.1,0.2c0.5,0,1-0.1,1.4-0.2c0.1,0,0.4-0.1,0.4-0.7c0-0.2-0.1-0.4-0.5-0.7c-0.4-0.3-0.9-0.4-1.4-0.6
		c-2-0.5-3.9-1-5.7-1.6c-1.9-0.6-3.5-1.4-5-2.4c-1.5-1-2.6-2.2-3.5-3.6c-0.9-1.4-1.4-3.2-1.4-5.1c0-1.5,0.3-2.9,0.9-4.2
		c0.6-1.3,1.6-2.5,2.8-3.5c1.3-1,2.9-1.8,4.9-2.3c2-0.6,4.3-0.9,7.1-0.9c2.5,0,5,0.3,7.5,0.8c2.5,0.5,5,1.3,7.4,2.4l0.5,0.2l-6,9.2
		l-0.4-0.2c-0.7-0.4-1.5-0.8-2.3-1.1c-0.8-0.3-1.6-0.6-2.5-0.8c-0.8-0.2-1.6-0.4-2.3-0.5c-0.7-0.1-1.4-0.2-1.8-0.2
		c-1.7,0-2.6,0.4-2.6,1.1c0,0.2,0,0.3,0,0.3c0,0,0,0.1,0.2,0.2c0.1,0.1,0.3,0.2,0.8,0.3c0.4,0.1,1,0.3,1.7,0.5c2,0.5,4,1.1,5.8,1.6
		c1.9,0.6,3.6,1.3,5.1,2.2c1.5,0.9,2.7,2.1,3.7,3.5c0.9,1.4,1.4,3.2,1.5,5.3l0,0l0,0.2c0,1.6-0.3,3.1-0.9,4.4
		c-0.6,1.4-1.5,2.6-2.8,3.7c-1.3,1-3,1.8-5,2.4C62,311.2,59.5,311.5,56.5,311.5"/>
	<path d="M96.8,335.7c-3.5,2.7-8.1,4-13.8,4c-5.6,0-10.1-1.3-13.6-4c-4.1-3.1-6.1-7.6-6.1-13.7c0-5.9,2.2-10.4,6.6-13.7
		c3.7-2.8,8.3-4.2,13.7-4.2c4,0,7.5,0.8,10.4,2.5c2.9,1.7,5.2,4.3,6.9,7.8l-10.8,4.2c-0.4-1.7-1.3-3-2.8-4c-1.3-0.9-2.8-1.3-4.4-1.3
		c-2.4,0-4.3,0.9-5.7,2.5c-0.7,0.8-1.3,1.8-1.6,2.9c-0.3,1.1-0.5,2.3-0.5,3.7c0,1.3,0.2,2.4,0.5,3.5c0.4,1.1,0.9,2,1.7,2.8
		c1.4,1.7,3.3,2.5,5.7,2.5c3.4,0,5.5-1.2,6.4-3.5l-7.3,0v-8.4l20.3,0l0,2C102.8,327.7,100.8,332.5,96.8,335.7"/>
	<path class="st1" d="M83,313.8c-2.3,0-4,0.8-5.3,2.4c-0.7,0.8-1.2,1.7-1.5,2.7c-0.3,1-0.5,2.2-0.5,3.5c0,1.2,0.2,2.3,0.5,3.3
		c0.3,1,0.9,1.9,1.6,2.7c1.4,1.6,3.1,2.3,5.3,2.3c2.9,0,4.7-0.8,5.7-2.6l-7.1,0V319l8,0l0-0.1c-0.4-1.6-1.2-2.8-2.6-3.8
		C85.9,314.3,84.5,313.8,83,313.8 M83.6,304.7c-5.3,0-9.8,1.4-13.4,4.1c-4.2,3.1-6.4,7.6-6.4,13.3c0,5.9,2,10.3,5.9,13.3
		c3.3,2.6,7.8,3.9,13.3,3.9c5.6,0,10.1-1.3,13.5-3.9c3.9-3.1,5.8-7.8,5.5-13.8l0-1.6l-19.3,0v7.4l7.6,0l-0.2,0.6
		c-1,2.5-3.3,3.8-6.9,3.8c-2.5,0-4.5-0.9-6-2.7c-0.8-0.9-1.4-1.9-1.8-3c-0.4-1.1-0.6-2.3-0.6-3.6c0-1.4,0.2-2.7,0.5-3.8
		c0.4-1.1,0.9-2.2,1.7-3c1.5-1.8,3.5-2.7,6-2.7c1.7,0,3.3,0.5,4.7,1.4c1.4,1,2.3,2.2,2.8,3.8l9.8-3.8c-1.7-3.2-3.9-5.6-6.5-7.1
		C91,305.5,87.5,304.7,83.6,304.7 M83,340.2c-5.7,0-10.4-1.4-13.9-4.1c-4.2-3.2-6.3-7.9-6.3-14c0-6,2.3-10.7,6.8-14
		c3.8-2.8,8.5-4.3,14-4.3c4.1,0,7.7,0.9,10.6,2.6c3,1.7,5.4,4.4,7.1,8l0.2,0.4L90.8,319l12.1,0l0.1,2.5c0.3,6.3-1.7,11.2-5.9,14.6
		C93.5,338.8,88.8,340.2,83,340.2"/>
	<path d="M126.9,356.8c0,1.5-0.3,2.9-0.8,4.3c-0.5,1.3-1.4,2.5-2.7,3.5c-1.2,1-2.9,1.8-4.9,2.4c-2,0.6-4.5,0.9-7.4,0.9
		c-3.4,0-6.7-0.4-9.6-1.1c-3-0.7-5.5-1.8-7.5-3.3l5.8-8.6c0.8,0.6,1.8,1.2,2.9,1.6c1.1,0.4,2.2,0.8,3.3,1c1.1,0.3,2.1,0.4,3,0.6
		c0.9,0.1,1.6,0.2,2.1,0.2c0.5,0,1.1-0.1,1.6-0.2c0.5-0.2,0.7-0.5,0.7-1.2c0-0.4-0.3-0.8-0.8-1.1c-0.5-0.3-1-0.5-1.5-0.6
		c-2-0.5-3.9-1-5.7-1.6c-1.8-0.6-3.5-1.4-4.9-2.4c-1.4-1-2.5-2.1-3.4-3.5c-0.9-1.4-1.3-3-1.3-4.9c0-1.4,0.3-2.7,0.9-4
		c0.6-1.2,1.5-2.3,2.7-3.3c1.2-1,2.8-1.7,4.7-2.3c1.9-0.6,4.2-0.8,6.9-0.8c2.5,0,4.9,0.3,7.3,0.8c2.5,0.5,4.9,1.3,7.3,2.4l-5.5,8.4
		c-0.7-0.4-1.5-0.8-2.4-1.2c-0.8-0.3-1.7-0.6-2.5-0.9c-0.8-0.2-1.6-0.4-2.4-0.5c-0.8-0.1-1.4-0.2-1.9-0.2c-2,0-3,0.5-3,1.5
		c0,0.2,0,0.3,0.1,0.5c0,0.1,0.2,0.2,0.4,0.4c0.2,0.1,0.5,0.2,0.9,0.4c0.4,0.1,1,0.3,1.7,0.5c2,0.5,3.9,1.1,5.8,1.6
		c1.8,0.6,3.5,1.3,5,2.1c1.4,0.9,2.6,2,3.5,3.4C126.3,352.9,126.8,354.7,126.9,356.8L126.9,356.8z"/>
	<path class="st1" d="M94.7,363.4c1.9,1.3,4.2,2.3,7,2.9c2.9,0.7,6.1,1.1,9.5,1.1c2.9,0,5.3-0.3,7.3-0.9c1.9-0.6,3.5-1.3,4.7-2.3
		c1.2-0.9,2-2,2.5-3.3c0.5-1.2,0.8-2.6,0.8-3.9l0-0.2c-0.1-2-0.5-3.7-1.4-5c-0.9-1.3-2-2.4-3.4-3.2c-1.4-0.9-3-1.6-4.8-2.1
		c-1.8-0.5-3.8-1.1-5.8-1.6c-0.7-0.2-1.3-0.3-1.8-0.5c-0.5-0.1-0.8-0.3-1-0.4c-0.3-0.2-0.5-0.4-0.5-0.6c-0.1-0.2-0.1-0.4-0.1-0.6
		c0-0.9,0.6-2,3.5-2c0.5,0,1.2,0.1,2,0.2c0.8,0.1,1.6,0.3,2.5,0.5c0.9,0.2,1.7,0.5,2.6,0.9c0.7,0.3,1.4,0.6,2,0.9l4.9-7.6
		c-2.2-0.9-4.4-1.7-6.7-2.1c-2.4-0.5-4.8-0.7-7.2-0.7c-2.6,0-4.9,0.3-6.8,0.8c-1.8,0.5-3.4,1.3-4.6,2.2c-1.2,0.9-2,2-2.6,3.1
		c-0.6,1.2-0.8,2.5-0.8,3.8c0,1.8,0.4,3.4,1.2,4.7c0.8,1.3,1.9,2.4,3.2,3.3c1.4,0.9,3,1.7,4.7,2.3c1.8,0.6,3.7,1.1,5.7,1.6
		c0.6,0.1,1.1,0.4,1.6,0.7c0.8,0.5,1,1,1,1.4c0.1,1.1-0.6,1.5-1,1.6c-0.5,0.2-1.1,0.2-1.7,0.2c-0.5,0-1.2-0.1-2.2-0.2
		c-1-0.1-2-0.3-3.1-0.6c-1.1-0.3-2.2-0.6-3.4-1c-1-0.4-1.8-0.8-2.6-1.3L94.7,363.4z M111.1,368.3c-3.5,0-6.8-0.4-9.7-1.1
		c-3-0.7-5.6-1.8-7.7-3.4l-0.4-0.3l6.3-9.4l0.4,0.3c0.8,0.6,1.7,1.1,2.7,1.5c1.1,0.4,2.2,0.7,3.2,1c1.1,0.3,2.1,0.4,3,0.5
		c0.9,0.1,1.6,0.2,2.1,0.2c0.5,0,1-0.1,1.4-0.2c0.1,0,0.4-0.1,0.4-0.7c0-0.2-0.1-0.4-0.5-0.7c-0.4-0.3-0.9-0.4-1.4-0.6
		c-2-0.5-3.9-1-5.7-1.6c-1.9-0.6-3.5-1.4-5-2.4c-1.5-1-2.6-2.2-3.5-3.6c-0.9-1.4-1.4-3.2-1.4-5.1c0-1.5,0.3-2.9,0.9-4.2
		c0.6-1.3,1.6-2.5,2.8-3.5c1.3-1,2.9-1.8,4.9-2.3c2-0.6,4.3-0.9,7.1-0.9c2.5,0,5,0.3,7.5,0.8c2.5,0.5,5,1.3,7.4,2.4l0.5,0.2l-6,9.2
		l-0.4-0.2c-0.7-0.4-1.5-0.8-2.3-1.1c-0.8-0.3-1.6-0.6-2.5-0.8c-0.8-0.2-1.6-0.4-2.3-0.5c-0.7-0.1-1.4-0.2-1.8-0.2
		c-1.7,0-2.6,0.4-2.6,1.1c0,0.2,0,0.3,0,0.3c0,0,0,0.1,0.2,0.2c0.1,0.1,0.3,0.2,0.8,0.3c0.4,0.1,1,0.3,1.7,0.5c2,0.5,4,1.1,5.8,1.6
		c1.9,0.6,3.6,1.3,5.1,2.2c1.5,0.9,2.7,2.1,3.7,3.5c0.9,1.4,1.4,3.2,1.5,5.3l0,0l0,0.2c0,1.6-0.3,3.1-0.9,4.4
		c-0.6,1.4-1.5,2.6-2.8,3.7c-1.3,1-3,1.8-5,2.4C116.7,368,114.1,368.3,111.1,368.3"/>
</g>
</svg>
