<?xml version="1.0" encoding="utf-8"?>
<!-- Generator: Adobe Illustrator 24.0.1, SVG Export Plug-In . SVG Version: 6.00 Build 0)  -->
<svg version="1.1" id="Layer_1" xmlns="http://www.w3.org/2000/svg" xmlns:xlink="http://www.w3.org/1999/xlink" x="0px" y="0px"
	 viewBox="0 0 5000 1560" style="enable-background:new 0 0 5000 1560;" xml:space="preserve">
<style type="text/css">
	.st0{fill:#37525D;}
	
		.st1{fill-rule:evenodd;clip-rule:evenodd;fill:#37525D;stroke:#FFFFFF;stroke-width:1.4457;stroke-linecap:round;stroke-linejoin:round;stroke-miterlimit:10;}
	.st2{fill:#FFFFFF;}
	.st3{fill-rule:evenodd;clip-rule:evenodd;fill:#FFFFFF;}
</style>
<g>
	<path class="st0" d="M445.3,724.8c0,12,9.8,21.6,21.8,21.6s21.6-9.8,21.6-21.8c0-10.8-7.8-19.7-18.1-21.4v-15.3
		c0-4.9-7.3-4.9-7.3,0v15.3C453,705.2,445.3,714,445.3,724.8L445.3,724.8z M466.4,540.3c-0.5,0-1,0.2-1.6,0.3l0,0l0,0
		c-1,0.5-1.9,1.4-2.1,2.8v0.2l0,0l0,0v0.2l0,0v0.2v0.2l0,0l0.2,33.1c0,4.9,7.3,4.9,7.3,0v-29.6h33.1c1.9,0,3.5-1.4,3.7-3.3
		c0.2-2.1-1.4-4-3.7-4H466.4z M470.4,614.2c0-4.9-7.3-4.9-7.3,0V651c0,4.9,7.3,4.9,7.3,0V614.2z M1252.1,724.8
		c0,12,9.8,21.6,21.8,21.6c12,0,21.6-9.8,21.6-21.8c0-10.8-7.8-19.7-18.1-21.4v-15.3c0-4.9-7.3-4.9-7.3,0v15.3
		C1259.8,705.2,1252.1,714,1252.1,724.8L1252.1,724.8z M1275.6,541.2c-2.1-1.7-6.1-0.7-6.1,2.8l0.2,33.3c0,4.9,7.3,4.9,7.3,0v-29.6
		c0.2,0,0.5,0,0.9,0h36.8c1.9,0,3.7-1.4,3.8-3.3c0.2-2.1-1.6-4-3.8-4h-36.8C1277,540.3,1276.1,540.7,1275.6,541.2L1275.6,541.2z
		 M1277.2,614.2c0-4.9-7.5-4.9-7.5,0l0.2,36.8c0,4.9,7.3,4.9,7.3,0V614.2z M2058.5,724.8c0,12,9.8,21.6,21.8,21.6
		s21.6-9.8,21.6-21.8c0-10.8-7.8-19.7-18.1-21.4v-15.3c0-4.9-7.3-4.9-7.3,0v15.3C2066.2,705.2,2058.5,714,2058.5,724.8L2058.5,724.8
		z M2083.4,544c0-4.9-7.5-4.9-7.5,0l0.2,33.3c0,4.9,7.3,4.9,7.3,0V544z M2083.6,614.2c0-4.9-7.3-4.9-7.3,0V651c0,4.9,7.3,4.9,7.3,0
		V614.2z M2865,724.8c0,12,9.8,21.6,21.8,21.6s21.6-9.8,21.6-21.8c0-10.8-7.8-19.7-18.1-21.4v-15.3c0-4.9-7.3-4.9-7.3,0v15.3
		C2872.6,705.2,2865,714,2865,724.8L2865,724.8z M2889.9,544c0-4.9-7.5-4.9-7.5,0l0.2,33.3c0,4.9,7.3,4.9,7.3,0V544z M2890.1,614.2
		c0-4.9-7.3-4.9-7.3,0V651c0,4.9,7.3,4.9,7.3,0V614.2z M4479.6,724.8c0,12,9.9,21.6,21.8,21.6c12,0,21.8-9.8,21.8-21.8
		c0-10.8-8-19.7-18.1-21.4l-0.2-15.3c0-4.9-7.3-4.9-7.3,0v15.3C4487.4,705.2,4479.6,714,4479.6,724.8L4479.6,724.8z M4504.5,544
		c0-4.9-7.3-4.9-7.3,0v33.3c0,4.9,7.5,4.9,7.5,0L4504.5,544z M4504.7,614.2c0-4.9-7.3-4.9-7.3,0V651c0,4.9,7.5,4.9,7.5,0
		L4504.7,614.2z M3671.4,724.8c0,12,9.8,21.6,21.8,21.6c12,0,21.6-9.8,21.6-21.8c0-10.8-7.8-19.7-18.1-21.4v-15.3
		c0-4.9-7.3-4.9-7.3,0v15.3C3679.1,705.2,3671.4,714,3671.4,724.8L3671.4,724.8z M3696.3,544c0-4.9-7.5-4.9-7.5,0l0.2,33.3
		c0,4.9,7.3,4.9,7.3,0V544z M3696.5,614.2c0-4.9-7.3-4.9-7.3,0V651c0,4.9,7.5,4.9,7.5,0L3696.5,614.2z M4486.4,547.6
		c1.9,0,3.7-1.4,3.7-3.3c0.2-2.1-1.4-4-3.7-4h-36.8c-1.9,0-3.7,1.6-3.7,3.3c-0.2,2.3,1.4,4,3.7,4H4486.4z M4412.7,547.6
		c1.9,0,3.5-1.4,3.7-3.3c0.2-2.1-1.6-4-3.7-4h-36.9c-1.9,0-3.5,1.6-3.7,3.3c-0.2,2.3,1.6,4,3.7,4H4412.7z M4339,547.6
		c1.9,0,3.5-1.4,3.7-3.3c0.2-2.1-1.6-4-3.7-4H4302c-1.9,0-3.5,1.6-3.7,3.3c-0.2,2.3,1.6,4,3.7,4H4339z M4265.1,547.6
		c1.9,0,3.7-1.4,3.8-3.3c0.2-2.1-1.6-4-3.8-4h-36.8c-1.9,0-3.7,1.6-3.7,3.3c-0.2,2.3,1.4,4,3.7,4H4265.1z M4191.4,547.6
		c1.9,0,3.5-1.4,3.7-3.3c0.2-2.1-1.4-4-3.7-4h-36.9c-1.7,0-3.5,1.6-3.7,3.3c-0.2,2.3,1.6,4,3.7,4H4191.4z M4117.7,547.6
		c1.9,0,3.5-1.4,3.7-3.3c0.2-2.1-1.6-4-3.7-4h-36.9c-1.9,0-3.5,1.6-3.7,3.3c-0.2,2.3,1.6,4,3.7,4H4117.7z M4044,547.6
		c1.7,0,3.5-1.4,3.7-3.3c0.2-2.1-1.6-4-3.7-4H4007c-1.9,0-3.5,1.6-3.7,3.3c-0.2,2.3,1.6,4,3.7,4H4044z M3970.1,547.6
		c1.9,0,3.7-1.4,3.7-3.3c0.2-2.1-1.4-4-3.7-4h-36.8c-1.9,0-3.7,1.6-3.8,3.3c0,2.3,1.6,4,3.8,4H3970.1z M3896.4,547.6
		c1.9,0,3.5-1.4,3.7-3.3c0.2-2.1-1.6-4-3.7-4h-36.9c-1.9,0-3.5,1.6-3.7,3.3c-0.2,2.3,1.6,4,3.7,4H3896.4z M3822.7,547.6
		c1.9,0,3.5-1.4,3.7-3.3c0.2-2.1-1.6-4-3.7-4h-36.9c-1.9,0-3.5,1.6-3.7,3.3c-0.2,2.3,1.6,4,3.7,4H3822.7z M3748.8,547.6
		c1.9,0,3.7-1.4,3.7-3.3c0.2-2.1-1.4-4-3.7-4H3712c-1.9,0-3.7,1.6-3.7,3.3c-0.2,2.3,1.4,4,3.7,4H3748.8z M3675.1,547.6
		c1.9,0,3.5-1.4,3.7-3.3c0.2-2.1-1.6-4-3.7-4h-36.9c-1.9,0-3.5,1.6-3.7,3.3c-0.2,2.3,1.6,4,3.7,4H3675.1z M3601.4,547.6
		c1.9,0,3.5-1.4,3.7-3.3c0.2-2.1-1.6-4-3.7-4h-36.9c-1.9,0-3.5,1.6-3.7,3.3c-0.2,2.3,1.6,4,3.7,4H3601.4z M3527.5,547.6
		c1.9,0,3.7-1.4,3.8-3.3c0-2.1-1.6-4-3.8-4h-36.8c-1.9,0-3.7,1.6-3.7,3.3c-0.2,2.3,1.4,4,3.7,4H3527.5z M3453.8,547.6
		c1.9,0,3.5-1.4,3.7-3.3c0.2-2.1-1.4-4-3.7-4h-36.9c-1.7,0-3.5,1.6-3.7,3.3c-0.2,2.3,1.6,4,3.7,4H3453.8z M3380.1,547.6
		c1.9,0,3.5-1.4,3.7-3.3c0.2-2.1-1.6-4-3.7-4h-36.9c-1.9,0-3.5,1.6-3.7,3.3c-0.2,2.3,1.6,4,3.7,4H3380.1z M3306.4,547.6
		c1.7,0,3.5-1.4,3.7-3.3c0.2-2.1-1.6-4-3.7-4h-36.9c-1.9,0-3.5,1.6-3.7,3.3c-0.2,2.3,1.6,4,3.7,4H3306.4z M3232.5,547.6
		c1.9,0,3.7-1.4,3.7-3.3c0.2-2.1-1.4-4-3.7-4h-36.8c-1.9,0-3.7,1.6-3.8,3.3c0,2.3,1.6,4,3.8,4H3232.5z M3158.8,547.6
		c1.9,0,3.5-1.4,3.7-3.3c0.2-2.1-1.6-4-3.7-4h-36.9c-1.9,0-3.5,1.6-3.7,3.3c-0.2,2.3,1.6,4,3.7,4H3158.8z M3085.1,547.6
		c1.9,0,3.5-1.4,3.7-3.3c0.2-2.1-1.6-4-3.7-4h-36.9c-1.9,0-3.5,1.6-3.7,3.3c-0.2,2.3,1.6,4,3.7,4H3085.1z M3011.2,547.6
		c1.9,0,3.7-1.4,3.7-3.3c0.2-2.1-1.4-4-3.7-4h-36.8c-1.9,0-3.7,1.6-3.7,3.3c-0.2,2.3,1.4,4,3.7,4H3011.2z M2937.5,547.6
		c1.9,0,3.5-1.4,3.7-3.3c0.2-2.1-1.6-4-3.7-4h-36.9c-1.9,0-3.5,1.6-3.7,3.3c-0.2,2.3,1.6,4,3.7,4H2937.5z M2863.8,547.6
		c1.9,0,3.5-1.4,3.7-3.3c0.2-2.1-1.6-4-3.7-4h-36.9c-1.9,0-3.5,1.6-3.7,3.3c-0.2,2.3,1.6,4,3.7,4H2863.8z M2789.9,547.6
		c1.9,0,3.7-1.4,3.8-3.3c0-2.1-1.6-4-3.8-4h-36.8c-1.9,0-3.7,1.6-3.7,3.3c-0.2,2.3,1.4,4,3.7,4H2789.9z M2716.2,547.6
		c1.9,0,3.5-1.4,3.7-3.3c0.2-2.1-1.4-4-3.7-4h-36.9c-1.7,0-3.5,1.6-3.7,3.3c-0.2,2.3,1.6,4,3.7,4H2716.2z M2642.5,547.6
		c1.9,0,3.5-1.4,3.7-3.3c0.2-2.1-1.6-4-3.7-4h-36.9c-1.9,0-3.5,1.6-3.7,3.3c-0.2,2.3,1.6,4,3.7,4H2642.5z M2568.7,547.6
		c1.7,0,3.5-1.4,3.7-3.3c0.2-2.1-1.6-4-3.7-4h-36.9c-1.9,0-3.5,1.6-3.7,3.3c-0.2,2.3,1.6,4,3.7,4H2568.7z M2494.9,547.6
		c1.9,0,3.7-1.4,3.7-3.3c0.2-2.1-1.4-4-3.7-4h-36.8c-1.9,0-3.7,1.6-3.8,3.3c0,2.3,1.6,4,3.8,4H2494.9z M2421.2,547.6
		c1.9,0,3.5-1.4,3.7-3.3c0.2-2.1-1.6-4-3.7-4h-36.9c-1.9,0-3.5,1.6-3.7,3.3c-0.2,2.3,1.6,4,3.7,4H2421.2z M2347.4,547.6
		c1.9,0,3.5-1.4,3.7-3.3c0.2-2.1-1.6-4-3.7-4h-36.9c-1.9,0-3.5,1.6-3.7,3.3c-0.2,2.3,1.6,4,3.7,4H2347.4z M2273.6,547.6
		c1.9,0,3.7-1.4,3.7-3.3c0.2-2.1-1.4-4-3.7-4h-36.8c-1.9,0-3.7,1.6-3.7,3.3c-0.2,2.3,1.4,4,3.7,4H2273.6z M2199.8,547.6
		c1.9,0,3.5-1.4,3.7-3.3c0.2-2.1-1.6-4-3.7-4h-36.9c-1.9,0-3.5,1.6-3.7,3.3c-0.2,2.3,1.6,4,3.7,4H2199.8z M2126.1,547.6
		c1.9,0,3.5-1.4,3.7-3.3c0.2-2.1-1.6-4-3.7-4h-36.9c-1.9,0-3.5,1.6-3.7,3.3c-0.2,2.3,1.6,4,3.7,4H2126.1z M2052.3,547.6
		c1.9,0,3.7-1.4,3.8-3.3c0.2-2.1-1.6-4-3.8-4h-36.8c-1.9,0-3.7,1.6-3.7,3.3c-0.2,2.3,1.4,4,3.7,4H2052.3z M1978.5,547.6
		c1.9,0,3.5-1.4,3.7-3.3c0.2-2.1-1.4-4-3.7-4h-36.9c-1.7,0-3.5,1.6-3.7,3.3c-0.2,2.3,1.6,4,3.7,4H1978.5z M1904.8,547.6
		c1.9,0,3.5-1.4,3.7-3.3c0.2-2.1-1.6-4-3.7-4h-36.9c-1.9,0-3.5,1.6-3.7,3.3c-0.2,2.3,1.6,4,3.7,4H1904.8z M1831.1,547.6
		c1.7,0,3.5-1.4,3.7-3.3c0.2-2.1-1.6-4-3.7-4h-36.9c-1.9,0-3.5,1.6-3.7,3.3c-0.2,2.3,1.6,4,3.7,4H1831.1z M1757.2,547.6
		c1.9,0,3.7-1.4,3.7-3.3c0.2-2.1-1.4-4-3.7-4h-36.8c-1.9,0-3.7,1.6-3.8,3.3c0,2.3,1.6,4,3.8,4H1757.2z M1683.5,547.6
		c1.9,0,3.5-1.4,3.7-3.3c0.2-2.1-1.6-4-3.7-4h-36.9c-1.9,0-3.5,1.6-3.7,3.3c-0.2,2.3,1.6,4,3.7,4H1683.5z M1609.8,547.6
		c1.9,0,3.5-1.4,3.7-3.3c0.2-2.1-1.6-4-3.7-4h-36.9c-1.9,0-3.5,1.6-3.7,3.3c-0.2,2.3,1.6,4,3.7,4H1609.8z M1535.9,547.6
		c1.9,0,3.7-1.4,3.7-3.3c0.2-2.1-1.4-4-3.7-4h-36.8c-1.9,0-3.7,1.6-3.7,3.3c-0.2,2.3,1.4,4,3.7,4H1535.9z M1462.2,547.6
		c1.9,0,3.5-1.4,3.7-3.3c0.2-2.1-1.6-4-3.7-4h-36.9c-1.9,0-3.5,1.6-3.7,3.3c-0.2,2.3,1.6,4,3.7,4H1462.2z M1388.5,547.6
		c1.9,0,3.5-1.4,3.7-3.3c0.2-2.1-1.6-4-3.7-4h-36.9c-1.9,0-3.5,1.6-3.7,3.3c-0.2,2.3,1.6,4,3.7,4H1388.5z M1240.9,547.6
		c1.9,0,3.5-1.4,3.7-3.3c0.2-2.1-1.4-4-3.7-4H1204c-1.7,0-3.5,1.6-3.7,3.3c-0.2,2.3,1.6,4,3.7,4H1240.9z M1167.2,547.6
		c1.9,0,3.5-1.4,3.7-3.3c0.2-2.1-1.6-4-3.7-4h-36.9c-1.9,0-3.5,1.6-3.7,3.3c-0.2,2.3,1.6,4,3.7,4H1167.2z M1093.5,547.6
		c1.7,0,3.5-1.4,3.7-3.3c0.2-2.1-1.6-4-3.7-4h-36.9c-1.9,0-3.5,1.6-3.7,3.3c-0.2,2.3,1.6,4,3.7,4H1093.5z M1019.6,547.6
		c1.9,0,3.7-1.4,3.7-3.3c0.2-2.1-1.4-4-3.7-4h-36.8c-1.9,0-3.7,1.6-3.8,3.3c0,2.3,1.6,4,3.8,4H1019.6z M945.9,547.6
		c1.9,0,3.5-1.4,3.7-3.3c0.2-2.1-1.6-4-3.7-4H909c-1.9,0-3.5,1.6-3.7,3.3c-0.2,2.3,1.6,4,3.7,4H945.9z M872.2,547.6
		c1.9,0,3.5-1.4,3.7-3.3c0.2-2.1-1.6-4-3.7-4h-36.9c-1.9,0-3.5,1.6-3.7,3.3c-0.2,2.3,1.6,4,3.7,4H872.2z M798.3,547.6
		c1.9,0,3.7-1.4,3.7-3.3c0.2-2.1-1.4-4-3.7-4h-36.8c-1.9,0-3.7,1.6-3.7,3.3c-0.2,2.3,1.4,4,3.7,4H798.3z M724.6,547.6
		c1.9,0,3.5-1.4,3.7-3.3c0.2-2.1-1.6-4-3.7-4h-36.9c-1.9,0-3.5,1.6-3.7,3.3c-0.2,2.3,1.6,4,3.7,4H724.6z M650.9,547.6
		c1.9,0,3.5-1.4,3.7-3.3c0.2-2.1-1.6-4-3.7-4H614c-1.9,0-3.5,1.6-3.7,3.3c-0.2,2.3,1.6,4,3.7,4H650.9z M577,547.6
		c1.9,0,3.7-1.4,3.8-3.3c0.2-2.1-1.6-4-3.8-4h-36.8c-1.9,0-3.7,1.6-3.7,3.3c-0.2,2.3,1.4,4,3.7,4H577z"/>
	<path class="st0" d="M585.4,423.4c27.7,0,50.2-10.8,67.6-32.8l36.1,37.1C660.5,460,626.9,476,588.2,476
		c-38.9,0-70.7-12.2-95.7-36.8c-25.1-24.4-37.6-55.4-37.6-92.7c0-37.5,12.7-68.5,38.3-93.6c25.4-24.9,56.8-37.5,93.7-37.5
		c41.1,0,75.6,15.9,103.5,47.2l-34.9,39.7c-17.8-22.1-39.9-33.3-66.2-33.3c-21.1,0-39.2,7-54.2,20.7s-22.5,32.4-22.5,55.9
		c0,23.3,7.1,42.2,21.3,56.3C548.1,416.4,565.4,423.4,585.4,423.4L585.4,423.4z M937.2,304.9c0,40.4-15.9,66.4-47.7,78.2l63.6,90.1
		h-69l-55.8-80.5h-38.9v80.5h-56.1v-252h95.3c39,0,66.9,6.6,83.6,19.9C928.9,254.4,937.2,275.6,937.2,304.9L937.2,304.9z
		 M830.4,344.1c19.2,0,32.2-3.1,39.2-9.2c7-6.3,10.5-16.2,10.5-29.8c0-13.6-3.7-22.8-10.8-27.9c-7.1-5.1-19.7-7.7-37.8-7.7h-42v74.6
		H830.4z M994.9,221.3h56.1v252h-56.1V221.3z M1193.7,265c-9.2,0-16.7,2.1-22.1,6.6c-5.4,4.4-8,10.3-8,17.6c0,7.3,3.3,13.2,9.9,17.4
		c6.4,4.4,21.8,9.4,45.7,15.3c23.9,5.9,42.3,14.8,55.6,26.5c13.1,11.8,19.7,28.9,19.7,51.6c0,22.5-8.4,40.9-25.3,54.9
		c-16.9,14.1-39.2,21.1-66.7,21.1c-39.9,0-75.6-14.8-107.7-44.3l33.5-41.1c27.2,23.9,52.3,35.7,75.3,35.7c10.3,0,18.5-2.3,24.2-6.6
		c5.9-4.5,8.9-10.5,8.9-18.1c0-7.5-3.1-13.6-9.4-17.9c-6.3-4.5-18.5-9.1-36.9-13.6c-29.3-7-50.7-16-64.3-27.2
		c-13.6-11.2-20.4-28.8-20.4-52.6c0-23.9,8.7-42.3,25.8-55.2c17.1-12.9,38.5-19.5,64.1-19.5c16.9,0,33.6,3,50.5,8.7
		c16.7,5.8,31.4,13.9,43.7,24.6l-28.4,40.9C1239.5,273.2,1217.1,265,1193.7,265L1193.7,265z M1342.4,221.3h56.1v252h-56.1V221.3z
		 M1541.2,265c-9.2,0-16.7,2.1-22.1,6.6c-5.4,4.4-8,10.3-8,17.6c0,7.3,3.3,13.2,9.9,17.4c6.6,4.4,21.8,9.4,45.7,15.3
		c23.9,5.9,42.3,14.8,55.6,26.5c13.2,11.8,19.7,28.9,19.7,51.6c0,22.5-8.4,40.9-25.3,54.9c-16.9,14.1-39.2,21.1-66.7,21.1
		c-39.9,0-75.6-14.8-107.5-44.3l33.5-41.1c27,23.9,52.1,35.7,75.1,35.7c10.3,0,18.5-2.3,24.2-6.6c5.9-4.5,8.9-10.5,8.9-18.1
		c0-7.5-3.1-13.6-9.4-17.9c-6.1-4.5-18.5-9.1-36.9-13.6c-29.3-7-50.7-16-64.3-27.2c-13.6-11.2-20.2-28.8-20.2-52.6
		c0-23.9,8.5-42.3,25.6-55.2c17.3-12.9,38.5-19.5,64.3-19.5c16.7,0,33.5,3,50.4,8.7c16.7,5.8,31.4,13.9,43.9,24.6l-28.4,40.9
		C1587,273.2,1564.5,265,1541.2,265L1541.2,265z M2009.9,314.7l-68,137.7h-33.5l-67.6-137.7v158.6h-56.1v-252h76l64.6,138.4
		l65.2-138.4h75.5v252h-56.1V314.7z M2307.2,473.2l-23.5-54.5h-105.4l-23.3,54.5h-59.6l108.6-252h54.4l108.6,252H2307.2z
		 M2231.2,296.2l-31.7,73.2h63.1L2231.2,296.2z M2571.9,221.3h56.1v252h-56.1L2452,315.4v157.9h-56.1v-252h52.6l123.4,162.2V221.3z
		 M2869,473.2l-23.3-54.5h-105.4l-23.3,54.5h-59.8l108.7-252h54.2l108.7,252H2869z M2793.2,296.2l-31.7,73.2h62.9L2793.2,296.2z
		 M3121.1,345h56.5v89.2c-24.9,27.9-59.4,41.8-103.5,41.8c-36.9,0-68-12.2-93.1-36.8c-25.1-24.4-37.6-55.4-37.6-92.7
		c0-37.5,12.9-68.5,38.3-93.6c25.6-24.9,56.5-37.5,92.5-37.5s67.4,12,94.1,35.7l-29.1,42.2c-11.3-9.9-21.8-16.7-31.2-20.4
		c-9.4-3.7-19.7-5.6-30.8-5.6c-21.3,0-39.2,7.3-53.8,21.8c-14.6,14.5-22,33.6-22,57.5c0,23.7,7,42.9,21.1,57.2
		c13.9,14.3,30.7,21.4,50.2,21.4c19.3,0,35.5-3.8,48.4-11.3V345z M3409,221.3v50.2h-125.3v51.8h112.7v47.9h-112.7v52.3H3413v49.8
		h-185.4v-252H3409z M3688.1,314.7l-68,137.7h-33.5l-67.6-137.7v158.6h-56.3v-252h76l64.8,138.4l65-138.4h75.6v252h-56.1V314.7z
		 M3987.3,221.3v50.2h-125.1v51.8h112.6v47.9h-112.6v52.3h129.1v49.8h-185.2v-252H3987.3z M4217.3,221.3h56.1v252h-56.1
		l-119.9-157.9v157.9h-56.1v-252h52.4l123.5,162.2V221.3z M4441.8,269.9v203.4h-56.1V269.9h-71.3v-48.6h198.6v48.6H4441.8z"/>
	<path class="st0" d="M1007.1,1343.8l-5.9-13.9h-27l-6.1,13.9h-15.2l27.7-64.5h13.9l27.9,64.5H1007.1z M987.7,1298.5l-8.2,18.8h16.2
		L987.7,1298.5z M1050.1,1290.5c-2.3,0-4.2,0.7-5.6,1.7c-1.4,1.2-2.1,2.6-2.1,4.5c0,1.9,0.9,3.3,2.4,4.5c1.7,1,5.8,2.4,11.8,3.8
		c6.1,1.6,10.8,3.8,14.1,6.8c3.5,3,5.2,7.5,5.2,13.2c0,5.8-2.3,10.5-6.6,13.9c-4.4,3.7-9.9,5.4-17.1,5.4c-10.3,0-19.3-3.7-27.5-11.3
		l8.5-10.5c7,6.1,13.4,9.1,19.3,9.1c2.6,0,4.7-0.5,6.1-1.6c1.6-1.2,2.3-2.8,2.3-4.7s-0.7-3.5-2.3-4.5c-1.7-1.2-4.9-2.3-9.6-3.5
		c-7.5-1.7-12.9-4.2-16.4-7c-3.5-3-5.2-7.3-5.2-13.4s2.1-11,6.6-14.3c4.4-3.3,9.8-4.9,16.4-4.9c4.4,0,8.5,0.7,12.9,2.3
		c4.4,1.4,8,3.5,11.3,6.3l-7.3,10.5C1062,1292.6,1056.2,1290.5,1050.1,1290.5L1050.1,1290.5z M1109,1290.5c-2.4,0-4.4,0.7-5.8,1.7
		c-1.4,1.2-2.1,2.6-2.1,4.5c0,1.9,0.9,3.3,2.6,4.5c1.7,1,5.6,2.4,11.7,3.8c6.1,1.6,11,3.8,14.3,6.8c3.3,3,5.1,7.5,5.1,13.2
		c0,5.8-2.1,10.5-6.4,13.9c-4.4,3.7-10.1,5.4-17.1,5.4c-10.3,0-19.5-3.7-27.7-11.3l8.7-10.5c7,6.1,13.2,9.1,19.2,9.1
		c2.6,0,4.7-0.5,6.3-1.6c1.6-1.2,2.3-2.8,2.3-4.7s-0.9-3.5-2.4-4.5c-1.6-1.2-4.7-2.3-9.4-3.5c-7.5-1.7-13.1-4.2-16.6-7
		c-3.5-3-5.2-7.3-5.2-13.4s2.3-11,6.6-14.3s9.9-4.9,16.6-4.9c4.2,0,8.5,0.7,12.9,2.3c4.2,1.4,8,3.5,11.2,6.3l-7.3,10.5
		C1120.7,1292.6,1115,1290.5,1109,1290.5L1109,1290.5z M1193.5,1279.3v12.9h-32.1v13.2h28.9v12.2h-28.9v13.4h33.1v12.7H1147v-64.5
		H1193.5z M1228.2,1290.5c-2.4,0-4.4,0.7-5.8,1.7c-1.4,1.2-2.1,2.6-2.1,4.5c0,1.9,0.9,3.3,2.6,4.5c1.6,1,5.6,2.4,11.7,3.8
		c6.1,1.6,10.8,3.8,14.3,6.8c3.3,3,5.1,7.5,5.1,13.2c0,5.8-2.3,10.5-6.6,13.9c-4.2,3.7-9.9,5.4-17.1,5.4c-10.1,0-19.3-3.7-27.5-11.3
		l8.5-10.5c7,6.1,13.4,9.1,19.3,9.1c2.6,0,4.7-0.5,6.3-1.6c1.4-1.2,2.3-2.8,2.3-4.7s-0.9-3.5-2.4-4.5c-1.6-1.2-4.7-2.3-9.6-3.5
		c-7.5-1.7-12.9-4.2-16.4-7c-3.5-3-5.2-7.3-5.2-13.4s2.3-11,6.6-14.3s9.9-4.9,16.4-4.9c4.4,0,8.7,0.7,12.9,2.3
		c4.4,1.4,8.2,3.5,11.3,6.3l-7.3,10.5C1239.9,1292.6,1234.1,1290.5,1228.2,1290.5L1228.2,1290.5z M1286.9,1290.5
		c-2.4,0-4.2,0.7-5.6,1.7c-1.4,1.2-2.1,2.6-2.1,4.5c0,1.9,0.9,3.3,2.4,4.5c1.7,1,5.6,2.4,11.8,3.8c6.1,1.6,10.8,3.8,14.1,6.8
		c3.5,3,5.1,7.5,5.1,13.2c0,5.8-2.1,10.5-6.4,13.9c-4.4,3.7-9.9,5.4-17.1,5.4c-10.3,0-19.3-3.7-27.5-11.3l8.5-10.5
		c7,6.1,13.4,9.1,19.3,9.1c2.6,0,4.7-0.5,6.1-1.6c1.6-1.2,2.3-2.8,2.3-4.7s-0.7-3.5-2.4-4.5c-1.6-1.2-4.7-2.3-9.4-3.5
		c-7.5-1.7-13.1-4.2-16.6-7c-3.3-3-5.1-7.3-5.1-13.4s2.1-11,6.4-14.3c4.5-3.3,9.9-4.9,16.6-4.9c4.4,0,8.5,0.7,12.9,2.3
		c4.4,1.4,8,3.5,11.3,6.3l-7.3,10.5C1298.8,1292.6,1292.9,1290.5,1286.9,1290.5L1286.9,1290.5z M1382.8,1303.2l-17.4,35.2h-8.5
		l-17.4-35.2v40.6h-14.3v-64.5h19.3l16.7,35.4l16.6-35.4h19.5v64.5h-14.5V1303.2z M1459.5,1279.3v12.9h-32.1v13.2h28.9v12.2h-28.9
		v13.4h33.1v12.7h-47.4v-64.5H1459.5z M1518.3,1279.3h14.5v64.5h-14.5l-30.7-40.4v40.4h-14.3v-64.5h13.4l31.5,41.5V1279.3z
		 M1576,1291.9v51.9h-14.5v-51.9h-18.3v-12.5h50.9v12.5H1576z"/>
	<path class="st0" d="M3475.7,1290.5c-2.4,0-4.4,0.7-5.8,1.7c-1.4,1.2-2.1,2.6-2.1,4.5c0,1.9,0.9,3.3,2.6,4.5
		c1.7,1,5.6,2.4,11.7,3.8c6.1,1.6,11,3.8,14.3,6.8s5.1,7.5,5.1,13.2c0,5.8-2.1,10.5-6.4,13.9c-4.4,3.7-10.1,5.4-17.1,5.4
		c-10.3,0-19.5-3.7-27.7-11.3l8.7-10.5c6.8,6.1,13.2,9.1,19.2,9.1c2.6,0,4.7-0.5,6.3-1.6c1.6-1.2,2.3-2.8,2.3-4.7s-0.9-3.5-2.4-4.5
		c-1.6-1.2-4.7-2.3-9.4-3.5c-7.5-1.7-13.1-4.2-16.6-7c-3.5-3-5.2-7.3-5.2-13.4s2.3-11,6.6-14.3s9.9-4.9,16.6-4.9
		c4.2,0,8.5,0.7,12.9,2.3c4.2,1.4,8,3.5,11.2,6.3l-7.3,10.5C3487.4,1292.6,3481.7,1290.5,3475.7,1290.5L3475.7,1290.5z
		 M3541.1,1291.9v51.9h-14.5v-51.9h-18.1v-12.5h50.9v12.5H3541.1z M3622.1,1300.8c0,10.3-4,17.1-12.2,20l16.2,23h-17.6l-14.3-20.6
		h-9.9v20.6h-14.5v-64.5h24.4c10.1,0,17.3,1.7,21.4,5.1C3620,1287.9,3622.1,1293.3,3622.1,1300.8L3622.1,1300.8z M3594.7,1310.9
		c4.9,0,8.2-0.9,10.1-2.4c1.7-1.6,2.6-4.2,2.6-7.7c0-3.5-0.9-5.8-2.8-7.1c-1.7-1.2-5.1-1.9-9.6-1.9h-10.8v19.2H3594.7z
		 M3682.7,1343.8l-5.9-13.9h-27l-5.9,13.9h-15.3l27.9-64.5h13.8l27.9,64.5H3682.7z M3663.4,1298.5l-8.2,18.8h16.2L3663.4,1298.5z
		 M3728.2,1291.9v51.9h-14.5v-51.9h-18.3v-12.5h51.1v12.5H3728.2z M3803.5,1279.3v12.9h-32.2v13.2h28.9v12.2h-28.9v13.4h33.1v12.7
		H3757v-64.5H3803.5z M3859.1,1311h14.5v22.8c-6.3,7.1-15.2,10.6-26.5,10.6c-9.4,0-17.4-3.1-23.9-9.4c-6.4-6.3-9.6-14.1-9.6-23.7
		s3.3-17.4,9.8-23.9c6.6-6.4,14.5-9.6,23.7-9.6s17.3,3,24,9.1l-7.3,10.8c-3-2.4-5.6-4.2-8-5.2c-2.4-0.9-5.1-1.4-7.8-1.4
		c-5.6,0-10.1,1.9-13.9,5.6c-3.7,3.7-5.6,8.7-5.6,14.6c0,6.1,1.7,11,5.4,14.6c3.7,3.7,7.8,5.6,12.9,5.6c4.9,0,9.1-1,12.4-3V1311z
		 M3913.1,1343.8h-14.5v-25.4l-22.3-39h15.7l13.8,24l13.9-24h15.7l-22.3,39V1343.8z"/>
	<path class="st0" d="M1770,1327.2c2.4,3,5.6,4.4,9.8,4.4c4,0,7.1-1.4,9.6-4.4c2.4-3,3.5-7.1,3.5-12.2v-35.7h14.5v36.1
		c0,9.4-2.6,16.6-7.7,21.6c-5.2,5.1-11.8,7.5-19.9,7.5s-14.6-2.6-19.9-7.7c-5.2-4.9-7.8-12.2-7.8-21.4v-36.1h14.5v35.7
		C1766.5,1320.1,1767.5,1324.3,1770,1327.2L1770,1327.2z M1867.2,1279.3h14.5v64.5h-14.5l-30.7-40.4v40.4h-14.3v-64.5h13.4
		l31.5,41.5V1279.3z M1920.3,1279.3c11.5,0,20.2,2.8,26.5,8.5c6.1,5.6,9.2,13.4,9.2,23.3c0,10.1-3.1,17.9-9.1,23.9
		c-5.9,5.8-15.2,8.7-27.4,8.7h-22.1v-64.5H1920.3z M1921,1331.1c6.6,0,11.7-1.6,15.2-4.9c3.5-3.3,5.2-8.2,5.2-14.6
		c0-6.3-1.7-11.2-5.2-14.5c-3.5-3.5-8.9-5.2-16.2-5.2h-8v39.2H1921z M2015,1279.3v12.9h-32.1v13.2h28.8v12.2h-28.8v13.4h33.1v12.7
		h-47.6v-64.5H2015z M2081,1300.8c0,10.3-4,17.1-12.2,20l16.2,23h-17.6l-14.3-20.6h-9.9v20.6h-14.5v-64.5h24.4
		c10.1,0,17.3,1.7,21.4,5.1C2078.9,1287.9,2081,1293.3,2081,1300.8L2081,1300.8z M2053.7,1310.9c4.9,0,8.2-0.9,10.1-2.4
		c1.7-1.6,2.6-4.2,2.6-7.7c0-3.5-0.9-5.8-2.8-7.1c-1.7-1.2-5.1-1.9-9.6-1.9h-10.8v19.2H2053.7z M2116.6,1290.5
		c-2.4,0-4.4,0.7-5.8,1.7c-1.4,1.2-2.1,2.6-2.1,4.5c0,1.9,0.9,3.3,2.6,4.5c1.7,1,5.6,2.4,11.7,3.8c6.1,1.6,10.8,3.8,14.3,6.8
		c3.3,3,5.1,7.5,5.1,13.2c0,5.8-2.1,10.5-6.4,13.9c-4.4,3.7-10.1,5.4-17.1,5.4c-10.3,0-19.5-3.7-27.7-11.3l8.7-10.5
		c6.8,6.1,13.2,9.1,19.2,9.1c2.6,0,4.7-0.5,6.3-1.6c1.4-1.2,2.3-2.8,2.3-4.7s-0.9-3.5-2.4-4.5c-1.6-1.2-4.7-2.3-9.4-3.5
		c-7.5-1.7-13.1-4.2-16.6-7c-3.5-3-5.2-7.3-5.2-13.4s2.3-11,6.6-14.3c4.4-3.3,9.9-4.9,16.4-4.9c4.4,0,8.7,0.7,13.1,2.3
		c4.2,1.4,8,3.5,11.2,6.3l-7.3,10.5C2128.2,1292.6,2122.5,1290.5,2116.6,1290.5L2116.6,1290.5z M2181.4,1291.9v51.9h-14.5v-51.9
		h-18.1v-12.5h50.9v12.5H2181.4z M2251.3,1343.8l-5.9-13.9h-27l-5.9,13.9h-15.3l27.9-64.5h13.9l27.7,64.5H2251.3z M2231.9,1298.5
		l-8.2,18.8h16.2L2231.9,1298.5z M2319.2,1279.3h14.5v64.5h-14.5l-30.7-40.4v40.4h-14.5v-64.5h13.4l31.7,41.5V1279.3z
		 M2372.2,1279.3c11.5,0,20.4,2.8,26.5,8.5c6.1,5.6,9.2,13.4,9.2,23.3c0,10.1-3,17.9-9.1,23.9c-5.9,5.8-15,8.7-27.4,8.7h-22v-64.5
		H2372.2z M2372.9,1331.1c6.6,0,11.7-1.6,15.3-4.9c3.5-3.3,5.2-8.2,5.2-14.6c0-6.3-1.7-11.2-5.2-14.5c-3.7-3.5-9.1-5.2-16.4-5.2h-8
		v39.2H2372.9z"/>
	<path class="st0" d="M2791.8,1331.1c7.1,0,12.9-2.8,17.4-8.4l9.2,9.4c-7.3,8.4-16,12.4-26,12.4s-18.1-3.1-24.4-9.4
		c-6.4-6.3-9.8-14.1-9.8-23.7s3.3-17.4,9.9-23.9c6.4-6.4,14.5-9.6,23.9-9.6c10.6,0,19.5,4,26.7,12l-8.9,10.1
		c-4.7-5.6-10.3-8.4-17.1-8.4c-5.4,0-9.9,1.7-13.8,5.2c-3.8,3.5-5.9,8.4-5.9,14.3c0,6.1,1.9,10.8,5.6,14.5
		C2782.4,1329.3,2786.7,1331.1,2791.8,1331.1L2791.8,1331.1z M2877.7,1311.2c0-5.8-1.9-10.6-5.6-14.6c-3.7-4.2-8.2-6.1-13.6-6.1
		s-9.9,1.9-13.6,6.1c-3.7,4-5.6,8.9-5.6,14.6s1.9,10.6,5.6,14.6c3.7,4,8.2,6.1,13.6,6.1s9.9-2.1,13.6-6.1
		C2875.8,1321.8,2877.7,1317,2877.7,1311.2L2877.7,1311.2z M2882.6,1334.9c-6.4,6.4-14.5,9.6-24,9.6c-9.6,0-17.6-3.1-24-9.6
		c-6.6-6.3-9.8-14.3-9.8-23.7s3.1-17.4,9.8-23.7c6.4-6.4,14.5-9.6,24-9.6c9.6,0,17.6,3.1,24,9.6c6.4,6.3,9.8,14.3,9.8,23.7
		S2889,1328.6,2882.6,1334.9L2882.6,1334.9z M2927.4,1279.3c9.9,0,17.1,1.9,21.6,5.8c4.5,3.8,6.8,9.8,6.8,17.8s-2.4,13.8-7,17.4
		c-4.7,3.7-11.8,5.6-21.3,5.6h-8.5v17.9h-14.5v-64.5H2927.4z M2928.6,1313.5c4.9,0,8-1,9.8-3c1.7-1.9,2.6-4.7,2.6-8.5
		c0-3.7-1-6.3-3.3-7.8c-2.3-1.6-5.8-2.4-10.5-2.4h-8.2v21.8H2928.6z M3013.4,1279.3v12.9h-32.1v13.2h28.8v12.2h-28.8v13.4h33.1v12.7
		h-47.6v-64.5H3013.4z"/>
	<path class="st0" d="M252.2,1279.3h14.5v64.5h-14.5V1279.3z M305.4,1279.3c11.5,0,20.2,2.8,26.3,8.5c6.3,5.6,9.2,13.4,9.2,23.3
		c0,10.1-3,17.9-8.9,23.9c-6.1,5.8-15.2,8.7-27.5,8.7h-22v-64.5H305.4z M306.1,1331.1c6.6,0,11.7-1.6,15.2-4.9
		c3.5-3.3,5.2-8.2,5.2-14.6c0-6.3-1.7-11.2-5.2-14.5c-3.5-3.5-9.1-5.2-16.4-5.2h-8v39.2H306.1z M399.8,1279.3v12.9h-32.1v13.2h28.9
		v12.2h-28.9v13.4h33.1v12.7h-47.4v-64.5H399.8z M458.9,1279.3h14.3v64.5h-14.3l-30.8-40.4v40.4h-14.3v-64.5h13.4l31.7,41.5V1279.3z
		 M516.4,1291.9v51.9h-14.5v-51.9h-18.3v-12.5h51.1v12.5H516.4z M545.1,1279.3h14.3v64.5h-14.3V1279.3z M619.6,1279.3v12.7h-29.8
		v13.9h28.4v12.5h-28.4v25.3h-14.5v-64.5H619.6z M659.6,1343.8h-14.5v-25.4l-22.3-39h15.5l13.9,24l13.9-24h15.7l-22.3,39V1343.8z"/>
	<path class="st0" d="M4297.9,1300.8c0,10.3-4,17.1-12.2,20l16.4,23h-17.8l-14.3-20.6h-9.9v20.6h-14.5v-64.5h24.6
		c9.9,0,17.1,1.7,21.4,5.1C4295.8,1287.9,4297.9,1293.3,4297.9,1300.8L4297.9,1300.8z M4270.5,1310.9c4.9,0,8.4-0.9,10.1-2.4
		c1.7-1.6,2.6-4.2,2.6-7.7c0-3.5-0.9-5.8-2.8-7.1c-1.7-1.2-5.1-1.9-9.6-1.9H4260v19.2H4270.5z M4359.2,1279.3v12.9h-32.1v13.2h28.8
		v12.2h-28.8v13.4h33.1v12.7h-47.6v-64.5H4359.2z M4402.6,1331.1c7.1,0,12.9-2.8,17.3-8.4l9.2,9.4c-7.3,8.4-15.9,12.4-25.8,12.4
		s-18.1-3.1-24.6-9.4c-6.4-6.3-9.6-14.1-9.6-23.7s3.3-17.4,9.8-23.9c6.6-6.4,14.6-9.6,24-9.6c10.6,0,19.5,4,26.7,12l-9.1,10.1
		c-4.5-5.6-10.1-8.4-16.9-8.4c-5.4,0-10.1,1.7-13.9,5.2c-3.8,3.5-5.8,8.4-5.8,14.3c0,6.1,1.9,10.8,5.4,14.5
		C4393,1329.3,4397.4,1331.1,4402.6,1331.1L4402.6,1331.1z M4488.5,1311.2c0-5.8-1.9-10.6-5.6-14.6c-3.7-4.2-8.2-6.1-13.6-6.1
		c-5.4,0-9.9,1.9-13.6,6.1c-3.7,4-5.6,8.9-5.6,14.6s1.9,10.6,5.6,14.6c3.7,4,8.2,6.1,13.6,6.1c5.4,0,9.9-2.1,13.6-6.1
		C4486.6,1321.8,4488.5,1317,4488.5,1311.2L4488.5,1311.2z M4493.4,1334.9c-6.6,6.4-14.6,9.6-24,9.6c-9.6,0-17.6-3.1-24.2-9.6
		c-6.4-6.3-9.8-14.3-9.8-23.7s3.3-17.4,9.8-23.7c6.6-6.4,14.6-9.6,24.2-9.6c9.4,0,17.4,3.1,24,9.6c6.4,6.3,9.8,14.3,9.8,23.7
		S4499.8,1328.6,4493.4,1334.9L4493.4,1334.9z M4537.6,1320.4l16.4-41.1h15.5l-25.8,64.5h-12.2l-26-64.5h15.7L4537.6,1320.4z
		 M4623.7,1279.3v12.9h-32.1v13.2h28.8v12.2h-28.8v13.4h33.1v12.7h-47.6v-64.5H4623.7z M4689.7,1300.8c0,10.3-4,17.1-12.2,20
		l16.4,23h-17.8l-14.3-20.6h-9.9v20.6h-14.5v-64.5h24.6c9.9,0,17.1,1.7,21.4,5.1C4687.7,1287.9,4689.7,1293.3,4689.7,1300.8
		L4689.7,1300.8z M4662.4,1310.9c4.9,0,8.4-0.9,10.1-2.4c1.7-1.6,2.6-4.2,2.6-7.7c0-3.5-0.9-5.8-2.8-7.1c-1.7-1.2-5.1-1.9-9.6-1.9
		h-10.8v19.2H4662.4z M4730.7,1343.8h-14.5v-25.4l-22.3-39h15.7l13.9,24l13.8-24h15.7l-22.3,39V1343.8z"/>
	<path class="st1" d="M467.1,1226.5c121.3,0,220.1-99,220.1-220.3s-98.8-220.1-220.1-220.1S247,885,247,1006.3
		S345.8,1226.5,467.1,1226.5L467.1,1226.5z"/>
	<path class="st1" d="M1273.5,1226.5c121.3,0,220.1-99,220.1-220.3s-98.8-220.1-220.1-220.1c-121.3,0-220.1,98.8-220.1,220.1
		S1152.2,1226.5,1273.5,1226.5L1273.5,1226.5z"/>
	<path class="st1" d="M2080,1226.5c121.3,0,220.1-99,220.1-220.3s-98.8-220.1-220.1-220.1c-121.3,0-220.1,98.8-220.1,220.1
		S1958.7,1226.5,2080,1226.5L2080,1226.5z"/>
	<path class="st1" d="M2886.4,1226.5c121.3,0,220.1-99,220.1-220.3s-98.8-220.1-220.1-220.1s-220.1,98.8-220.1,220.1
		S2765.1,1226.5,2886.4,1226.5L2886.4,1226.5z"/>
	<path class="st1" d="M3692.8,1226.5c121.3,0,220.1-99,220.1-220.3s-98.8-220.1-220.1-220.1s-220.1,98.8-220.1,220.1
		S3571.6,1226.5,3692.8,1226.5L3692.8,1226.5z"/>
	<path class="st1" d="M4499.3,1226.5c121.3,0,220.3-99,220.3-220.3s-99-220.1-220.3-220.1s-220.1,98.8-220.1,220.1
		S4378,1226.5,4499.3,1226.5L4499.3,1226.5z"/>
	<path class="st2" d="M1230.1,868.3h-27.5v7.8v6.1h101.8v-6.1v-7.8h-27.5c-3.1,0-5.8-2.4-5.9-5.6c-0.2-4.7-2.3-8.9-5.4-11.8
		c-3.1-3-7.3-4.7-12-4.7c-4.7,0-8.9,1.7-12,4.7c-3,3-5.1,7-5.4,11.3v0.2C1236.1,865.6,1233.4,868.3,1230.1,868.3L1230.1,868.3z
		 M1367.8,1041.8l-36.2,36.2c-0.7,0.9-1.7,1.4-2.6,1.6l-42.7,14.3c-3.1,1-6.4-0.5-7.5-3.7c-0.3-1.2-0.3-2.6,0-3.7l14.5-43
		c0.3-0.9,0.9-1.7,1.6-2.3l73-73.2V882h-51.6v1.7c0,2.8-1,5.2-3,7.1l0,0c-1.9,1.9-4.5,3.1-7.3,3.1H1201c-2.8,0-5.4-1.2-7.3-3.1
		c-1.7-1.7-3-4.4-3-7.1V882h-51.6v251.3h228.6V1041.8z M1173.2,944.2c-3.3,0-5.9-2.6-5.9-5.9c0-3.3,2.6-5.9,5.9-5.9h101.4
		c3.1,0,5.9,2.6,5.9,5.9c0,3.3-2.8,5.9-5.9,5.9H1173.2z M1173.2,978.6c-3.3,0-5.9-2.6-5.9-5.9s2.6-5.9,5.9-5.9h86.8
		c3.3,0,5.9,2.6,5.9,5.9s-2.6,5.9-5.9,5.9H1173.2z M1173.2,1012.9c-3.3,0-5.9-2.6-5.9-5.9c0-3.3,2.6-5.9,5.9-5.9h58.2
		c3.3,0,5.9,2.6,5.9,5.9c0,3.3-2.6,5.9-5.9,5.9H1173.2z M1173.2,1084.5c-3.3,0-5.9-2.8-5.9-5.9c0-3.3,2.6-5.9,5.9-5.9h73
		c3.3,0,5.9,2.6,5.9,5.9c0,3.1-2.6,5.9-5.9,5.9H1173.2z M1452.1,935c0-3.7-1.4-7.3-4.2-10.1c-2.8-2.8-6.4-4.2-10.1-4.2
		s-7.1,1.4-9.9,4l-49.8,49.8c-0.2,0.2-0.3,0.3-0.3,0.3l-73.7,73.7l-10.3,30.5l30.5-10.3l45.1-45.1c0-0.2,0.2-0.3,0.3-0.3l78.2-78.2
		C1450.7,942.3,1452.1,938.7,1452.1,935L1452.1,935z"/>
	<path class="st2" d="M2189,911.6c-7.3-7.3-17.3-11.8-28.4-11.8c-11.2,0-21.3,4.5-28.4,11.8c-7.3,7.3-11.8,17.3-11.8,28.4
		c0,13.8,8.7,26,16.7,37.3l2.1,3.1h43l1.7-2.6c8-11.5,16.9-24,16.9-37.8C2200.9,928.9,2196.4,919,2189,911.6L2189,911.6z
		 M2181.7,1002.1h-42.2c-1.2,0-1.9,0.5-2.3,1.4c-0.2,0.3-0.2,0.7-0.2,1c0,0.5,0,0.9,0.2,1.2c0.3,0.7,1,1.4,2.3,1.4h42.2
		c1.2,0,1.9-0.7,2.3-1.4c0.2-0.3,0.2-0.7,0.2-1.2c0-0.3,0-0.7-0.2-1C2183.6,1002.6,2182.9,1002.1,2181.7,1002.1L2181.7,1002.1z
		 M2181.7,988.8h-42.2c-1.2,0-1.9,0.5-2.3,1.4c-0.2,0.3-0.2,0.7-0.2,1c0,0.5,0,0.9,0.2,1.2c0.3,0.7,1,1.4,2.3,1.4h42.2
		c1.2,0,1.9-0.7,2.3-1.4c0.2-0.3,0.2-0.7,0.2-1.2c0-0.3,0-0.7-0.2-1C2183.6,989.4,2182.9,988.8,2181.7,988.8L2181.7,988.8z
		 M2147.9,1014.1l0.9,1.9c1.2,3,1.9,4.5,2.6,4.9c0.5,0.5,2.4,0.5,6.3,0.5h3h3c3.8,0,5.6,0,6.3-0.5c0.7-0.3,1.4-1.9,2.6-4.9l0.9-1.9
		H2147.9z M2243.4,933.6c3,0,5.2,2.4,5.2,5.2c0,2.8-2.3,5.2-5.2,5.2h-20.2c-3,0-5.2-2.4-5.2-5.2c0-2.8,2.3-5.2,5.2-5.2H2243.4z
		 M2086.2,901.9c-2.4-1.4-3.3-4.5-1.7-7c1.4-2.6,4.5-3.3,7-1.9l17.6,10.1c2.4,1.4,3.3,4.5,1.9,7.1c-1.4,2.4-4.7,3.3-7.1,1.7
		L2086.2,901.9z M2114.8,869.7c-1.6-2.4-0.7-5.6,1.7-7c2.6-1.4,5.8-0.7,7.1,1.9l10.1,17.4c1.4,2.6,0.7,5.8-1.9,7.1
		c-2.4,1.4-5.6,0.5-7-1.9L2114.8,869.7z M2155.4,856.1c0-3,2.4-5.2,5.2-5.2s5.2,2.3,5.2,5.2v20.2c0,3-2.4,5.2-5.2,5.2
		s-5.2-2.3-5.2-5.2V856.1z M2197.6,864.6c1.4-2.6,4.5-3.3,7-1.9c2.6,1.4,3.3,4.5,1.9,7l-10.1,17.6c-1.4,2.4-4.5,3.3-7.1,1.9
		c-2.4-1.4-3.3-4.5-1.7-7.1L2197.6,864.6z M2077.9,944.1c-3,0-5.2-2.4-5.2-5.2c0-2.8,2.3-5.2,5.2-5.2h20.2c3,0,5.2,2.4,5.2,5.2
		c0,2.8-2.3,5.2-5.2,5.2H2077.9z M2067.6,1114.8c-0.5-31.5-1-33.5-1.4-34.9v-0.2c-0.5-1.7-0.7-3.8-0.9-39.6c0-1.7,1.4-3.3,3.3-3.3
		c1.6,0,2.8,1.2,3.1,2.8l14.8,89c1,6.1,4.7,9.6,8.7,10.5c1.7,0.5,3.7,0.5,5.4,0.2c1.7-0.3,3.3-0.9,4.9-1.9c3.8-2.6,6.3-7.3,5.1-13.8
		c-3.7-19.7-7.1-37.3-10.6-54.9c-3.7-17.4-7.1-34.9-10.6-54c-1.9-10.5-16.6-17.6-35.4-21.3h-0.2c-9.2-1.7-19.5-2.6-29.8-2.8
		c-10.3,0-20.7,0.9-30.1,2.6c-19.5,3.7-34.9,10.8-36.9,21.6l-21.3,108.9c-1.4,6.3,1,11,4.9,13.4c1.4,1,3.1,1.7,4.9,2.1
		c1.9,0.3,3.7,0.3,5.4-0.2c4.2-0.9,7.8-4.4,8.9-10.5l14.8-89c0.3-1.7,1.9-3,3.7-2.8c1.7,0.3,2.8,1.9,2.8,3.5
		c-0.2,36.4-0.5,37.6-0.9,39.6c-0.3,1.4-0.9,3.3-1.4,34.9c-0.2,6.8,10.1,11.5,23.5,13.8c6.4,1.2,13.6,1.7,20.9,1.7
		c7.1,0,14.5-0.5,20.9-1.7C2057.5,1126.3,2067.8,1121.6,2067.6,1114.8L2067.6,1114.8z M2047,911.6c-6.1-6.1-14.6-9.9-23.9-9.9
		c-9.4,0-17.8,3.8-24,9.9c-6.1,6.1-9.8,14.5-9.8,23.9c0,10.3,4.4,22.5,11.5,31.9c5.9,7.8,13.8,13.4,22.3,13.4
		c8.4,0,16.2-5.6,22.3-13.4c7-9.4,11.5-21.6,11.5-31.9C2057,926.1,2053.1,917.7,2047,911.6L2047,911.6z M2236.3,901.9
		c2.4-1.4,3.3-4.5,1.9-7c-1.6-2.6-4.7-3.3-7.1-1.9l-17.6,10.1c-2.4,1.4-3.3,4.5-1.7,7.1c1.4,2.4,4.5,3.3,7,1.7L2236.3,901.9z"/>
	<path class="st3" d="M2820.2,854c15.5,0,27.9,12.4,27.9,27.9c0,15.3-12.4,36.6-27.9,36.6c-15.3,0-27.9-21.3-27.9-36.6
		C2792.3,866.3,2804.9,854,2820.2,854L2820.2,854z M2824,1047.7l5.9,96.7c1.2,19,26.7,19,26.3,0c-1-49.7-1.6-123.4-1.7-176.3
		l4.7,28.2l45.8,24.2c14.5,8,25.3-13.1,10.6-20.9c-13.1-6.8-24.9-12.9-36.9-19c-2.1-10.3-4.2-20.7-6.3-31.9
		c-4.9-26.8-99.3-26.8-104.6,0l-15.9,81.9c-3.3,16.4,20.2,20.9,22.8,4.5l11.2-67.1c-0.2,53-0.7,126.7-1.7,176.3
		c-0.3,19,25.1,19,26.1,0l6.1-96.7H2824z"/>
	<path class="st2" d="M3000,913.6c-2.3,82.6-13.4,168.5-109.8,192.4l-5.8-22.8c84.2-20.7,90.1-99.1,92-169.5h-20.6l16.2-28.2
		l16.4-28.2l16.4,28.2l16.2,28.2H3000z"/>
	<path class="st2" d="M3829.8,908.3h-273.9v168.5h273.9V908.3z M3543.9,1096.9h298c1.4,0,2.6-0.5,3.5-1.4c0.9-0.9,1.4-2.1,1.4-3.5
		c0-1.2-0.5-2.4-1.4-3.3c-0.9-0.9-2.1-1.4-3.5-1.4h-6.8h-284.4h-6.8c-1.4,0-2.6,0.5-3.5,1.4l0,0c-0.9,0.9-1.4,2.1-1.4,3.3
		c0,1.4,0.5,2.6,1.4,3.5C3541.2,1096.4,3542.5,1096.9,3543.9,1096.9L3543.9,1096.9z M3604.3,1033.5c-0.9-0.9-2.1-1.4-3.5-1.4
		c-1.2,0-2.4,0.3-3.3,1.2l-0.2,0.2c-0.9,0.9-1.4,2.1-1.4,3.5c0,1.4,0.5,2.6,1.4,3.5l0,0c0.9,0.9,2.1,1.4,3.5,1.4
		c1.4,0,2.6-0.5,3.5-1.4c0.9-0.9,1.4-2.1,1.4-3.5C3605.7,1035.5,3605.2,1034.3,3604.3,1033.5L3604.3,1033.5z M3755.8,961.1
		c-0.9-0.9-2.1-1.4-3.5-1.4c-1.2,0-2.4,0.5-3.3,1.4c-0.9,0.9-1.4,2.1-1.4,3.5c0,1.4,0.5,2.4,1.4,3.3c0.9,0.9,2.1,1.4,3.3,1.4
		c1.4,0,2.6-0.5,3.5-1.4c0.9-0.9,1.4-1.9,1.4-3.3C3757.1,963.2,3756.6,962,3755.8,961.1L3755.8,961.1z M3752.3,949.3
		c4.2,0,8,1.7,10.8,4.5c2.8,2.8,4.5,6.6,4.5,10.8s-1.7,8-4.5,10.8c-2.8,2.8-6.6,4.5-10.8,4.5s-8-1.7-10.8-4.5
		c-2.6-2.8-4.4-6.4-4.4-10.5c-37.3-11.8-47.7,12-58.4,36.1c-11.8,26.5-23.5,53.1-63.4,44.8c-0.5,0-1-0.2-1.6-0.5
		c-0.5,0.9-1.2,1.7-1.9,2.4c-2.8,2.8-6.6,4.5-11,4.5c-4.2,0-8-1.7-10.8-4.5c-2.8-2.8-4.5-6.6-4.5-10.8c0-4.4,1.7-8.2,4.5-11l0.3-0.3
		c2.8-2.4,6.4-4.2,10.5-4.2c4.2,0,8.2,1.7,11,4.5c2.4,2.6,4,5.9,4.4,9.6c0.3,0,0.9,0,1.2,0.2c31.5,6.6,41.6-16.2,51.8-38.9
		c12.5-28.6,25.1-57,71.3-41.8c0.3-0.5,0.7-0.9,1-1.2C3744.3,951,3748.1,949.3,3752.3,949.3L3752.3,949.3z M3624.7,936.2
		c1.9-2.1,5.2-2.1,7.3,0c2.1,2.1,2.1,5.4,0,7.5l-9.2,9.2l9.2,9.4c2.1,1.9,2.1,5.2,0,7.3c-2.1,2.1-5.4,2.1-7.3,0l-9.4-9.2l-9.2,9.2
		c-2.1,2.1-5.4,2.1-7.5,0c-1.9-2.1-1.9-5.4,0-7.3l9.4-9.4l-9.4-9.2c-1.9-2.1-1.9-5.4,0-7.5c2.1-2.1,5.4-2.1,7.5,0l9.2,9.4
		L3624.7,936.2z M3798.4,948.6l6.3-3.7l-12.5-7.3v14.5L3798.4,948.6z M3772.5,1000.9c-3,0-5.2-2.4-5.2-5.2c0-3,2.3-5.2,5.2-5.2h9.1
		v-37.3v-0.3v-24.2c0-3,2.4-5.2,5.4-5.2c1,0,2.1,0.3,2.8,0.9l28.1,16.2c2.4,1.4,3.3,4.5,1.9,7.1c-0.5,0.9-1.4,1.6-2.3,2.1
		l-25.3,14.6v26.1h9.1c3,0,5.2,2.3,5.2,5.2c0,2.8-2.3,5.2-5.2,5.2h-14.3H3772.5z M3747.6,1019.5c2.1-2.1,5.4-2.1,7.5,0
		c2.1,2.1,2.1,5.4,0,7.5l-9.2,9.2l9.2,9.2c2.1,2.1,2.1,5.4,0,7.5c-2.1,2.1-5.4,2.1-7.5,0l-9.2-9.4l-9.2,9.4c-2.1,2.1-5.4,2.1-7.5,0
		c-2.1-2.1-2.1-5.4,0-7.5l9.2-9.2l-9.2-9.2c-2.1-2.1-2.1-5.4,0-7.5c2.1-2.1,5.4-2.1,7.5,0l9.2,9.2L3747.6,1019.5z M3649.8,1185.2
		c-3,0-5.2-2.3-5.2-5.2c0-2.8,2.3-5.2,5.2-5.2h37.8v-58.9c0-3,2.3-5.2,5.2-5.2s5.2,2.3,5.2,5.2v58.9h37.8c3,0,5.2,2.4,5.2,5.2
		c0,3-2.3,5.2-5.2,5.2H3649.8z M3841.8,888.1h-298c-1.4,0-2.6,0.5-3.5,1.4l0,0c-0.9,0.9-1.4,2.1-1.4,3.5c0,1.2,0.5,2.4,1.4,3.3
		c0.9,0.9,2.1,1.4,3.5,1.4h6.8H3835h6.8c1.4,0,2.6-0.5,3.5-1.4c0.9-0.9,1.4-2.1,1.4-3.3c0-1.4-0.5-2.6-1.4-3.5
		C3844.4,888.6,3843.2,888.1,3841.8,888.1L3841.8,888.1z"/>
	<path class="st2" d="M4555.6,950c-14.3-14.5-34.3-23.3-56.3-23.3c-22,0-41.8,8.9-56.3,23.3c-14.5,14.5-23.3,34.3-23.3,56.3
		c0,22,8.9,42,23.3,56.3c14.5,14.5,34.3,23.3,56.3,23.3c22,0,42-8.9,56.3-23.3c14.5-14.3,23.3-34.3,23.3-56.3
		C4578.9,984.3,4570,964.4,4555.6,950L4555.6,950z M4439.7,1011.7l15.7-15.7c2.3-2.3,6.1-2.3,8.4,0l15.9,15.9l55.2-55.2
		c2.3-2.3,6.1-2.3,8.4,0l15.9,15.9c2.3,2.3,2.3,6.1,0,8.4l-75.3,75.1c-2.3,2.3-5.9,2.3-8.4,0l-35.7-35.9
		C4437.3,1017.8,4437.3,1014.1,4439.7,1011.7L4439.7,1011.7z M4513.6,835.5c2.6-1.9,6.3-1.6,8.4,1c1.9,2.4,1.6,6.3-1,8.2l-10.5,8.2
		c38,2.8,72.3,19.3,97.6,44.6c27.9,27.9,45.1,66.4,45.1,108.7c0,30.1-8.7,58.4-23.9,82.1c-15.5,24.6-37.6,44.4-64.1,57
		c-3,1.4-6.4,0.2-7.8-2.8c-1.4-3-0.2-6.4,2.8-7.8c24.4-11.7,45-30,59.2-52.6c13.9-22,22-47.9,22-75.8c0-39.2-15.9-74.6-41.6-100.4
		c-23.3-23.3-54.7-38.5-89.6-41.1l7.3,9.2c1.9,2.6,1.6,6.3-1,8.4c-2.6,1.9-6.3,1.6-8.2-1l-16.6-20.9c-2.1-2.6-1.6-6.3,0.9-8.4
		L4513.6,835.5z M4485,1177c-2.6,2.1-6.3,1.6-8.2-0.9c-2.1-2.6-1.6-6.3,0.9-8.4l10.5-8.2c-38-2.6-72.1-19.2-97.6-44.6
		c-27.9-27.7-45-66.2-45-108.7c0-27.4,7.1-53,19.7-75.5c13.1-23,31.9-42.3,54.5-56.1c2.8-1.7,6.3-0.9,8,1.9c1.7,2.8,0.7,6.4-1.9,8.2
		c-20.9,12.5-38.3,30.5-50.4,51.9c-11.7,20.4-18.3,44.3-18.3,69.5c0,39.2,16,74.8,41.6,100.4c23.3,23.3,54.7,38.7,89.7,41.3
		l-7.5-9.4c-1.9-2.6-1.6-6.3,1-8.2c2.6-2.1,6.3-1.6,8.4,0.9l16.6,21.1c1.9,2.6,1.4,6.3-1,8.2L4485,1177z M4459.6,1008.5l-7.5,7.3
		l27.5,27.5l66.9-66.7l-7.5-7.5l-55.2,55.2c-2.3,2.3-5.9,2.3-8.4,0L4459.6,1008.5z"/>
	<path class="st2" d="M586.1,1014.5l-0.5,0.2c-0.2,0.2-0.3,0.3-0.5,0.5l0,0l0,0l0,0l-8.2,8.2l0,0l-0.3,0.3v0.2l-0.3,0.3
		c-0.3,0.7-0.7,1.6-0.7,2.4c0,1.4,0.5,2.6,1.4,3.5l49.7,49.7c1,1,2.3,1.4,3.5,1.4c1.2,0,2.4-0.3,3.3-1.2l8.4-8.4
		c0.9-0.9,1.4-2.1,1.4-3.3c0-1.4-0.5-2.6-1.4-3.5l-49.7-49.7c-1-0.9-2.3-1.4-3.5-1.4C587.7,1013.8,586.8,1013.9,586.1,1014.5
		L586.1,1014.5z M463.2,920.9l5.1,8.7c2.4-4.9,5.8-9.4,9.8-13.4c9.8-9.6,23.2-15.7,38-15.7c14.8,0,28.2,6.1,37.8,15.7
		c9.8,9.8,15.9,23.2,15.9,38c0,14.8-6.1,28.2-15.9,38c-9.6,9.8-23,15.7-37.8,15.7c-0.9,0-1.7,0-2.6,0l5.1,8.7
		c6.3-0.2,12.2-1.4,17.8-3.3c6.8-2.3,12.9-5.6,18.3-9.9l2.1-1.6l16.6,16.4l6.8-6.8l-16.6-16.4l1.7-2.3c4.2-5.4,7.5-11.5,9.8-18.1
		c2.3-6.4,3.5-13.2,3.5-20.4c0-17.3-7-32.8-18.3-44.1c-11.3-11.3-26.8-18.3-44.1-18.3c-17.3,0-32.9,7-44.3,18.3
		C468.5,913.2,465.7,916.9,463.2,920.9L463.2,920.9z M459.6,927.2c-3.8,8.2-6.1,17.4-6.1,27c0,17.3,7,32.9,18.3,44.3
		c10.3,10.1,24,16.9,39.4,17.9l-5.6-9.6c-10.6-1.9-20.2-7.3-27.5-14.6c-9.8-9.8-15.7-23.2-15.7-38c0-6.1,0.9-11.8,2.8-17.4
		L459.6,927.2z M514.8,1022.8c-18.5-0.2-35.2-7.8-47.4-20c-12.5-12.4-20.2-29.6-20.2-48.6c0-12,3.1-23.5,8.7-33.5l-23.5-40.8
		c-1.4-2.3-3.1-4-5.2-5.2c-1.9-1.2-4.4-1.7-7-1.7s-5.1,0.5-7.1,1.7s-3.8,3-5.1,5.2l-115,199c-1.2,2.3-1.9,4.7-1.9,7.1
		c0,2.3,0.7,4.7,1.9,7c1.4,2.3,3.1,4,5.2,5.2c1.9,1.2,4.4,1.7,7,1.7H535c2.6,0,5.1-0.5,7.1-1.7c1.9-1.2,3.7-3,5.1-5.1v-0.2
		c1.4-2.3,1.9-4.7,1.9-7c0-2.4-0.5-4.9-1.9-7.1L514.8,1022.8z M420.2,942c0.3,0,0.7,0,1.2,0c3.5,0.3,7,1.9,9.4,4.4
		c2.4,2.4,4,5.8,4,9.6c0,0.3,0,0.7,0,1l-5.8,68.7c-0.2,1.6-1.6,2.8-3.1,2.8h-11.5c-1.7,0-3.1-1.2-3.1-3l-5.8-68.5
		c-0.2-0.3-0.2-0.7-0.2-1c0-3.8,1.6-7.1,4.2-9.6c2.4-2.4,5.8-4,9.4-4.4C419.3,942,419.7,942,420.2,942L420.2,942z M420.2,1035.4
		c3.8,0,7.1,1.6,9.8,4c2.4,2.4,4,5.9,4,9.8c0,3.8-1.6,7.3-4,9.8c-2.6,2.4-5.9,4-9.8,4s-7.3-1.6-9.8-4c-2.6-2.4-4-5.9-4-9.8
		c0-3.8,1.4-7.3,4-9.8C412.9,1036.9,416.4,1035.4,420.2,1035.4L420.2,1035.4z M469.5,944.4c-0.7,3.1-1,6.4-1,9.8
		c0,13.1,5.4,24.9,13.9,33.6c5.2,5.1,11.7,9.1,18.8,11.5L469.5,944.4z"/>
</g>
</svg>
