<?xml version="1.0" encoding="UTF-8"?>
<svg xmlns="http://www.w3.org/2000/svg" viewBox="0 0 500 150">
  <defs>
    <style>
      .cls-1 {
        fill: #153260;
      }

      .cls-1, .cls-2 {
        stroke-width: 0px;
      }

      .cls-3 {
        fill: #2b8e89;
      }

      .cls-3, .cls-4, .cls-5, .cls-6, .cls-7, .cls-8 {
        stroke: #153260;
        stroke-linecap: round;
        stroke-linejoin: round;
        stroke-width: .8px;
      }

      .cls-4 {
        fill: #eaebf0;
      }

      .cls-5 {
        fill: #747681;
      }

      .cls-2 {
        fill: #fff;
      }

      .cls-6 {
        fill: none;
      }

      .cls-7 {
        fill: #de5250;
      }

      .cls-8 {
        fill: #f6bc42;
      }
    </style>
  </defs>
  <g id="BG">
    <rect class="cls-2" width="500" height="150"/>
  </g>
  <g id="Layer_13" data-name="Layer 13">
    <g>
      <path class="cls-1" d="m48.88,40.24c-1.83,0-2.4.14-2.4-.4s.43-.4,2.4-.4c.53,0,.53.8,0,.8Z"/>
      <path class="cls-1" d="m77.62,40.24c-3.61,0-3.99.15-3.99-.4s.25-.4,3.99-.4c.53,0,.53.8,0,.8Zm-7.19,0c-3.61,0-3.99.15-3.99-.4s.25-.4,3.99-.4c.53,0,.53.8,0,.8Zm-7.19,0c-3.61,0-3.99.15-3.99-.4s.25-.4,3.99-.4c.53,0,.53.8,0,.8Zm-7.19,0c-3.61,0-3.99.15-3.99-.4s.25-.4,3.99-.4c.53,0,.53.8,0,.8Z"/>
      <path class="cls-1" d="m83.21,40.24c-1.83,0-2.4.14-2.4-.4s.43-.4,2.4-.4c.53,0,.53.8,0,.8Z"/>
    </g>
    <g>
      <path class="cls-1" d="m46.88,74.02c-.51,0-.4-.43-.4-2.4,0-.53.8-.53.8,0,0,1.83.14,2.4-.4,2.4Z"/>
      <path class="cls-1" d="m46.88,67.76c-.55,0-.4-.21-.4-4.65,0-.53.8-.53.8,0,0,4.4.15,4.65-.4,4.65Zm0-8.51c-.55,0-.4-.22-.4-4.65,0-.53.8-.53.8,0,0,4.4.15,4.65-.4,4.65Zm0-8.51c-.55,0-.4-.21-.4-4.65,0-.53.8-.53.8,0,0,4.4.15,4.65-.4,4.65Z"/>
      <path class="cls-1" d="m46.88,42.24c-.51,0-.4-.43-.4-2.4,0-.53.8-.53.8,0,0,1.83.14,2.4-.4,2.4Z"/>
    </g>
    <g>
      <path class="cls-1" d="m453.3,40.24c-1.83,0-2.4.14-2.4-.4s.43-.4,2.4-.4c.53,0,.53.8,0,.8Z"/>
      <path class="cls-1" d="m447.45,40.24c-4.13,0-4.25.12-4.25-.4,0-.57.44-.4,4.25-.4.53,0,.53.8,0,.8Zm-7.7,0c-4.13,0-4.25.12-4.25-.4,0-.57.44-.4,4.25-.4.53,0,.53.8,0,.8Zm-7.7,0c-4.13,0-4.25.12-4.25-.4,0-.57.44-.4,4.25-.4.53,0,.53.8,0,.8Zm-7.7,0c-4.13,0-4.25.12-4.25-.4,0-.57.44-.4,4.25-.4.53,0,.53.8,0,.8Z"/>
      <path class="cls-1" d="m416.64,40.24c-1.83,0-2.4.14-2.4-.4s.43-.4,2.4-.4c.53,0,.53.8,0,.8Z"/>
    </g>
    <g>
      <path class="cls-1" d="m453.3,74.02c-.51,0-.4-.43-.4-2.4,0-.53.8-.53.8,0,0,1.83.14,2.4-.4,2.4Z"/>
      <path class="cls-1" d="m453.3,67.76c-.55,0-.4-.21-.4-4.65,0-.53.8-.53.8,0,0,4.4.15,4.65-.4,4.65Zm0-8.51c-.55,0-.4-.22-.4-4.65,0-.53.8-.53.8,0,0,4.4.15,4.65-.4,4.65Zm0-8.51c-.55,0-.4-.21-.4-4.65,0-.53.8-.53.8,0,0,4.4.15,4.65-.4,4.65Z"/>
      <path class="cls-1" d="m453.3,42.24c-.51,0-.4-.43-.4-2.4,0-.53.8-.53.8,0,0,1.83.14,2.4-.4,2.4Z"/>
    </g>
    <g>
      <path class="cls-1" d="m148.48,59.13c-.51,0-.4-.43-.4-2.4,0-.53.8-.53.8,0,0,1.83.14,2.4-.4,2.4Z"/>
      <path class="cls-1" d="m148.48,67.72c-.55,0-.4-.22-.4-4.7,0-.53.8-.53.8,0,0,4.45.15,4.7-.4,4.7Z"/>
      <path class="cls-1" d="m148.48,74.02c-.51,0-.4-.43-.4-2.4,0-.53.8-.53.8,0,0,1.83.14,2.4-.4,2.4Z"/>
    </g>
    <g>
      <path class="cls-1" d="m250.09,59.13c-.51,0-.4-.43-.4-2.4,0-.53.8-.53.8,0,0,1.83.14,2.4-.4,2.4Z"/>
      <path class="cls-1" d="m250.09,67.72c-.55,0-.4-.22-.4-4.7,0-.53.8-.53.8,0,0,4.45.15,4.7-.4,4.7Z"/>
      <path class="cls-1" d="m250.09,74.02c-.51,0-.4-.43-.4-2.4,0-.53.8-.53.8,0,0,1.83.14,2.4-.4,2.4Z"/>
    </g>
    <g>
      <path class="cls-1" d="m351.69,59.13c-.51,0-.4-.43-.4-2.4,0-.53.8-.53.8,0,0,1.83.14,2.4-.4,2.4Z"/>
      <path class="cls-1" d="m351.69,67.72c-.55,0-.4-.22-.4-4.7,0-.53.8-.53.8,0,0,4.45.15,4.7-.4,4.7Z"/>
      <path class="cls-1" d="m351.69,74.02c-.51,0-.4-.43-.4-2.4,0-.53.8-.53.8,0,0,1.83.14,2.4-.4,2.4Z"/>
    </g>
    <g>
      <path class="cls-1" d="m35.23,126.14v4.04h-.71v-4.04h.71Z"/>
      <path class="cls-1" d="m36.34,130.18v-4.04h.77c.83,1.54,1.21,2.19,1.56,3.06h.01c-.08-.93-.07-1.63-.07-3.06h.65v4.04h-.71c-.7-1.31-1.27-2.31-1.58-3.12h-.02c.05.91.04,1.75.04,3.12h-.65Z"/>
      <path class="cls-1" d="m42.96,130.08c-.16.08-.49.16-.91.16-2.58,0-2.51-4.15.1-4.15.42,0,.72.08.84.16-.23.91.05.44-.81.44-1.69,0-1.71,2.95,0,2.95.86,0,.63-.43.79.45Z"/>
      <path class="cls-1" d="m44.54,126.14v4.04h-.71v-4.04h.71Z"/>
      <path class="cls-1" d="m45.65,126.2c.78-.14,1.9-.17,2.51.34.85.71.77,2.46,0,3.17-.61.56-1.69.57-2.51.46v-3.97Zm.71,3.44c.93.18,1.66-.31,1.66-1.55,0-1.13-.72-1.59-1.66-1.38v2.93Z"/>
      <path class="cls-1" d="m51.73,128.37h-1.35v1.22h1.52v.59h-2.23v-4.04h2.15v.59h-1.44v1.06h1.35v.58Z"/>
      <path class="cls-1" d="m52.8,130.18v-4.04h.77c.83,1.54,1.21,2.19,1.56,3.06h.01c-.08-.93-.07-1.63-.07-3.06h.65v4.04h-.71c-.7-1.31-1.27-2.31-1.58-3.12h-.02c.05.91.04,1.75.04,3.12h-.65Z"/>
      <path class="cls-1" d="m57.5,126.75h-1.02v-.61h2.77v.61h-1.03v3.43h-.71v-3.43Z"/>
    </g>
    <g>
      <path class="cls-1" d="m131.28,126.2c.59-.11,1.66-.19,2.15.24.51.43.48,1.36.04,1.8-.36.38-1.05.49-1.49.41v1.54h-.7v-3.99Zm.7,1.88c1.45.36,1.55-1.76,0-1.38v1.38Z"/>
      <path class="cls-1" d="m134.7,126.2c3.06-.6,2.93,1.63,1.82,2.06,0,.1.36-.01.55.82.12.5.22.96.3,1.11h-.73c-.45-.88.09-1.67-1.23-1.67v1.67h-.7v-3.98Zm.7,1.79h.36c1.13,0,.99-1.67-.36-1.3v1.3Z"/>
      <path class="cls-1" d="m141.37,128.12c0,2.85-3.39,2.85-3.39.06s3.39-2.84,3.39-.06Zm-2.65.05c0,2,1.9,2.01,1.9-.03s-1.9-2.01-1.9.03Z"/>
      <path class="cls-1" d="m144.87,130.09c-.16.08-.49.16-.91.16-2.58,0-2.51-4.15.1-4.15.42,0,.72.08.84.16-.23.91.05.44-.81.44-1.69,0-1.71,2.95,0,2.95.86,0,.63-.43.79.45Z"/>
      <path class="cls-1" d="m147.8,128.38h-1.35v1.22h1.52v.59h-2.23v-4.04h2.15v.59h-1.44v1.06h1.35v.58Z"/>
      <path class="cls-1" d="m148.88,126.2c.78-.14,1.9-.17,2.51.34.85.71.77,2.46,0,3.17-.61.56-1.69.57-2.51.46v-3.97Zm.71,3.44c.93.18,1.66-.31,1.66-1.55,0-1.13-.72-1.59-1.66-1.38v2.93Z"/>
      <path class="cls-1" d="m153.59,126.15c0,2.63-.15,3.52.72,3.52s.74-.88.74-3.52h.71c0,2.04.38,4.1-1.46,4.1s-1.41-2.08-1.41-4.1h.71Z"/>
      <path class="cls-1" d="m156.85,126.2c3.06-.6,2.93,1.63,1.82,2.06,0,.1.36-.01.55.82.12.5.22.96.3,1.11h-.73c-.45-.88.09-1.67-1.23-1.67v1.67h-.7v-3.98Zm.7,1.79h.36c1.13,0,.99-1.67-.36-1.3v1.3Z"/>
      <path class="cls-1" d="m162.4,128.38h-1.35v1.22h1.52v.59h-2.23v-4.04h2.15v.59h-1.44v1.06h1.35v.58Z"/>
      <path class="cls-1" d="m163.44,129.42c.58.34,1.57.36,1.57-.33,0-.8-1.65-.65-1.65-1.85,0-1.09,1.38-1.41,2.22-.97-.27.97.04.41-.87.41-.44,0-.63.25-.63.49,0,.31.21.46.71.68,1.52.68,1.12,2.39-.5,2.39-.39,0-.79-.11-.98-.23l.15-.59Z"/>
    </g>
    <g>
      <path class="cls-1" d="m208.9,126.76h-1.02v-.61h2.77v.61h-1.03v3.43h-.71v-3.43Z"/>
      <path class="cls-1" d="m213.47,128.38h-1.35v1.22h1.52v.59h-2.23v-4.04h2.15v.59h-1.44v1.06h1.35v.58Z"/>
      <path class="cls-1" d="m217.13,130.09c-.16.08-.49.16-.91.16-2.58,0-2.51-4.15.1-4.15.42,0,.72.08.84.16-.23.91.05.44-.81.44-1.69,0-1.71,2.95,0,2.95.86,0,.63-.43.79.45Z"/>
      <path class="cls-1" d="m218.71,126.15v1.63h1.48v-1.63h.71v4.04h-.71v-1.78h-1.48v1.78h-.71v-4.04h.71Z"/>
      <path class="cls-1" d="m222.01,130.19v-4.04h.77c.83,1.54,1.21,2.19,1.56,3.06h.01c-.08-.93-.07-1.63-.07-3.06h.65v4.04h-.71c-.7-1.31-1.27-2.31-1.58-3.12h-.02c.05.91.04,1.75.04,3.12h-.65Z"/>
      <path class="cls-1" d="m229.23,128.12c0,2.85-3.39,2.85-3.39.06s3.39-2.84,3.39-.06Zm-2.65.05c0,2,1.9,2.01,1.9-.03s-1.9-2.01-1.9.03Z"/>
      <path class="cls-1" d="m230.14,126.15h.71v3.45h1.49v.6h-2.2v-4.04Z"/>
      <path class="cls-1" d="m236.13,128.12c0,2.85-3.39,2.85-3.39.06s3.39-2.84,3.39-.06Zm-2.65.05c0,2,1.9,2.01,1.9-.03s-1.9-2.01-1.9.03Z"/>
      <path class="cls-1" d="m239.95,130.03c-3.82,1.42-4.09-3.92-1.04-3.92.43,0,.77.09.94.17l-.15.58c-2.38-1.09-2.87,2.79-.88,2.79.22,0,.38-.03.45-.07v-1.04h-.63v-.56h1.31v2.06Z"/>
      <path class="cls-1" d="m241.75,130.19c0-2.09.23-1.19-1.16-4.04h.8c.43,1.03.59,1.38.75,1.85h.01c.16-.49.46-1.17.74-1.85h.78c-1.46,2.83-1.21,1.92-1.21,4.04h-.71Z"/>
      <path class="cls-1" d="m246.55,126.15v4.04h-.71v-4.04h.71Z"/>
      <path class="cls-1" d="m247.66,130.19v-4.04h.77c.83,1.54,1.21,2.19,1.56,3.06h.01c-.08-.93-.07-1.63-.07-3.06h.65v4.04h-.71c-.7-1.31-1.27-2.31-1.58-3.12h-.02c.05.91.04,1.75.04,3.12h-.65Z"/>
      <path class="cls-1" d="m251.68,126.15h2.13v.59h-1.42v1.14h1.33v.58h-1.33v1.72h-.71v-4.04Z"/>
      <path class="cls-1" d="m254.79,126.2c3.06-.6,2.93,1.63,1.82,2.06,0,.1.36-.01.55.82.12.5.22.96.3,1.11h-.73c-.45-.88.09-1.67-1.23-1.67v1.67h-.7v-3.98Zm.7,1.79h.36c1.13,0,.99-1.67-.36-1.3v1.3Z"/>
      <path class="cls-1" d="m259.04,129.07l-.31,1.12h-.72l1.18-4.04h.88l1.17,4.04h-.74l-.32-1.12h-1.14Zm1.03-.54c-.37-1.33-.28-.97-.46-1.78h-.01c-.18.83-.07.42-.45,1.78h.93Z"/>
      <path class="cls-1" d="m262.05,129.42c.58.34,1.57.36,1.57-.33,0-.8-1.65-.65-1.65-1.85,0-1.09,1.38-1.41,2.22-.97-.27.97.04.41-.87.41-.44,0-.63.25-.63.49,0,.31.21.46.71.68,1.52.68,1.12,2.39-.5,2.39-.39,0-.79-.11-.98-.23l.15-.59Z"/>
      <path class="cls-1" d="m265.93,126.76h-1.02v-.61h2.77v.61h-1.03v3.43h-.71v-3.43Z"/>
      <path class="cls-1" d="m268.43,126.2c3.06-.6,2.93,1.63,1.82,2.06,0,.1.36-.01.55.82.12.5.22.96.3,1.11h-.73c-.45-.88.09-1.67-1.23-1.67v1.67h-.7v-3.98Zm.7,1.79h.36c1.13,0,.99-1.67-.36-1.3v1.3Z"/>
      <path class="cls-1" d="m272.6,126.15c0,2.63-.15,3.52.72,3.52s.74-.88.74-3.52h.71c0,2.04.38,4.1-1.46,4.1s-1.41-2.08-1.41-4.1h.71Z"/>
      <path class="cls-1" d="m278.45,130.09c-.16.08-.49.16-.91.16-2.58,0-2.51-4.15.1-4.15.42,0,.72.08.84.16-.23.91.05.44-.81.44-1.69,0-1.71,2.95,0,2.95.86,0,.63-.43.79.45Z"/>
      <path class="cls-1" d="m280.11,126.76h-1.02v-.61h2.77v.61h-1.03v3.43h-.71v-3.43Z"/>
      <path class="cls-1" d="m283.31,126.15c0,2.63-.15,3.52.72,3.52s.74-.88.74-3.52h.71c0,2.04.38,4.1-1.46,4.1s-1.41-2.08-1.41-4.1h.71Z"/>
      <path class="cls-1" d="m286.57,126.2c3.06-.6,2.93,1.63,1.82,2.06,0,.1.36-.01.55.82.12.5.22.96.3,1.11h-.73c-.45-.88.09-1.67-1.23-1.67v1.67h-.7v-3.98Zm.7,1.79h.36c1.13,0,.99-1.67-.36-1.3v1.3Z"/>
      <path class="cls-1" d="m292.12,128.38h-1.35v1.22h1.52v.59h-2.23v-4.04h2.15v.59h-1.44v1.06h1.35v.58Z"/>
    </g>
    <g>
      <path class="cls-1" d="m430.92,126.2c3.06-.6,2.93,1.63,1.82,2.06,0,.1.36-.01.55.82.12.5.22.96.3,1.11h-.73c-.45-.88.09-1.67-1.23-1.67v1.67h-.7v-3.98Zm.7,1.79h.36c1.13,0,.99-1.67-.36-1.3v1.3Z"/>
      <path class="cls-1" d="m436.47,128.38h-1.35v1.22h1.52v.59h-2.23v-4.04h2.15v.59h-1.44v1.06h1.35v.58Z"/>
      <path class="cls-1" d="m437.51,129.42c.58.34,1.57.36,1.57-.33,0-.8-1.65-.65-1.65-1.85,0-1.09,1.38-1.41,2.22-.97-.27.97.04.41-.87.41-.44,0-.63.25-.63.49,0,.31.21.46.71.68,1.52.68,1.12,2.39-.5,2.39-.39,0-.79-.11-.98-.23l.15-.59Z"/>
      <path class="cls-1" d="m441.39,126.76h-1.02v-.61h2.77v.61h-1.03v3.43h-.71v-3.43Z"/>
      <path class="cls-1" d="m446.93,128.12c0,2.85-3.39,2.85-3.39.06s3.39-2.84,3.39-.06Zm-2.65.05c0,2,1.9,2.01,1.9-.03s-1.9-2.01-1.9.03Z"/>
      <path class="cls-1" d="m447.83,126.2c3.06-.6,2.93,1.63,1.82,2.06,0,.1.36-.01.55.82.12.5.22.96.3,1.11h-.73c-.45-.88.09-1.67-1.23-1.67v1.67h-.7v-3.98Zm.7,1.79h.36c1.13,0,.99-1.67-.36-1.3v1.3Z"/>
      <path class="cls-1" d="m452.03,126.15v4.04h-.71v-4.04h.71Z"/>
      <path class="cls-1" d="m453.14,130.19v-4.04h.77c.83,1.54,1.21,2.19,1.56,3.06h.01c-.08-.93-.07-1.63-.07-3.06h.65v4.04h-.71c-.7-1.31-1.27-2.31-1.58-3.12h-.02c.05.91.04,1.75.04,3.12h-.65Z"/>
      <path class="cls-1" d="m460.07,130.03c-3.82,1.42-4.09-3.92-1.04-3.92.43,0,.77.09.94.17l-.15.58c-2.38-1.09-2.87,2.79-.88,2.79.22,0,.38-.03.45-.07v-1.04h-.63v-.56h1.31v2.06Z"/>
      <path class="cls-1" d="m462.53,126.2c.78-.14,1.9-.17,2.51.34.85.71.77,2.46,0,3.17-.61.56-1.69.57-2.51.46v-3.97Zm.71,3.44c.93.18,1.66-.31,1.66-1.55,0-1.13-.72-1.59-1.66-1.38v2.93Z"/>
      <path class="cls-1" d="m467.19,129.07l-.31,1.12h-.72l1.18-4.04h.88l1.17,4.04h-.74l-.32-1.12h-1.14Zm1.03-.54c-.37-1.33-.28-.97-.46-1.78h-.01c-.18.84-.08.46-.45,1.78h.93Z"/>
      <path class="cls-1" d="m470.47,126.76h-1.02v-.61h2.77v.61h-1.03v3.43h-.71v-3.43Z"/>
      <path class="cls-1" d="m473.33,129.07l-.31,1.12h-.72l1.18-4.04h.88l1.17,4.04h-.74l-.32-1.12h-1.14Zm1.03-.54c-.37-1.33-.28-.97-.46-1.78h-.01c-.18.83-.07.42-.45,1.78h.93Z"/>
    </g>
    <g>
      <path class="cls-1" d="m345.11,126.16c.59-.11,1.66-.19,2.15.24.51.43.48,1.36.04,1.8-.36.38-1.05.49-1.49.41v1.54h-.7v-3.99Zm.7,1.88c1.45.36,1.55-1.76,0-1.38v1.38Z"/>
      <path class="cls-1" d="m348.53,126.1h.71v3.45h1.49v.6h-2.2v-4.04Z"/>
      <path class="cls-1" d="m352.31,129.03l-.31,1.12h-.72l1.18-4.04h.88l1.17,4.04h-.74l-.32-1.12h-1.14Zm1.03-.54c-.37-1.33-.28-.97-.46-1.78h-.01c-.18.83-.07.42-.45,1.78h.93Z"/>
      <path class="cls-1" d="m355.36,130.15v-4.04h.77c.83,1.54,1.21,2.19,1.56,3.06h.01c-.08-.93-.07-1.63-.07-3.06h.65v4.04h-.71c-.7-1.31-1.27-2.31-1.58-3.12h-.02c.05.91.04,1.75.04,3.12h-.65Z"/>
    </g>
    <g>
      <path class="cls-1" d="m111.26,27.29c5.77,0,9.64,3.48,9.64,9.25s-3.87,9.25-9.64,9.25h-7.82v-18.49h7.82Zm0,14.21c2.7,0,4.62-1.72,4.62-4.97s-1.93-4.97-4.62-4.97h-2.8v9.93h2.8Z"/>
      <path class="cls-1" d="m123.62,45.79v-18.49h5.02v18.49h-5.02Z"/>
      <path class="cls-1" d="m139.31,46.26c-2.81,0-5.93-.83-8.08-2.64l2.59-3.59c3.64,2.76,8.53,2.08,8.53.16,0-1.37-1.88-1.64-3.25-1.77-4.04-.36-7.34-1.58-7.34-5.63,0-6.5,9.73-7.53,14.87-3.94l-2.3,3.51c-2.36-1.61-5.46-1.64-6.85-.95-1.22.6-1.03,1.84-.15,2.3,1.64.85,5.25.23,8.03,2.44,3.76,3.01,2.24,10.1-6.05,10.1Z"/>
      <path class="cls-1" d="m163.72,45.79l-1.21-3.06h-8.58l-1.24,3.06h-5.36l8.29-18.49h5.28l8.24,18.49h-5.42Zm-2.93-7.29l-2.56-6.5-2.62,6.5h5.18Z"/>
      <path class="cls-1" d="m177.4,46.26c-2.81,0-5.93-.83-8.08-2.64l2.59-3.59c3.64,2.76,8.53,2.08,8.53.16,0-1.37-1.88-1.64-3.25-1.77-4.04-.36-7.34-1.58-7.34-5.63,0-6.5,9.73-7.53,14.87-3.94l-2.3,3.51c-2.36-1.61-5.46-1.64-6.85-.95-1.22.6-1.03,1.84-.15,2.3,1.64.85,5.25.23,8.03,2.44,3.76,3.01,2.24,10.1-6.05,10.1Z"/>
      <path class="cls-1" d="m202.13,27.29v4.28h-5.44v14.21h-5.02v-14.21h-5.44v-4.28h15.9Z"/>
      <path class="cls-1" d="m209.23,41.66h9.88v4.12h-14.71v-18.49h14.34v4.07h-9.51v3.09h8.98v3.91h-8.98v3.3Z"/>
      <path class="cls-1" d="m233.22,45.79l-4.31-5.97h-1.85v5.97h-5.02v-18.49h9.17c4.27,0,6.74,2.72,6.74,6.34,0,2.82-1.3,4.71-3.91,5.68l5.05,6.47h-5.86Zm-.21-12.07c0-1.5-.85-2.25-2.56-2.25h-3.43v4.49h3.43c1.71,0,2.56-.75,2.56-2.25Z"/>
      <path class="cls-1" d="m258.36,45.79l-4.31-5.97h-1.85v5.97h-5.02v-18.49h9.17c4.27,0,6.74,2.72,6.74,6.34,0,2.82-1.3,4.71-3.91,5.68l5.05,6.47h-5.86Zm-.21-12.07c0-1.5-.85-2.25-2.56-2.25h-3.43v4.49h3.43c1.71,0,2.56-.75,2.56-2.25Z"/>
      <path class="cls-1" d="m271.18,41.66h9.88v4.12h-14.71v-18.49h14.34v4.07h-9.51v3.09h8.98v3.91h-8.98v3.3Z"/>
      <path class="cls-1" d="m282.77,36.54c0-9.79,11.34-12.44,17.09-6.79l-3.01,3.09c-2.34-2.19-5.84-2.02-7.66-.13-1.88,1.95-1.88,5.71,0,7.66,1.91,1.99,5.73,2.02,8.16-.34l2.83,3.28c-5.69,5.49-17.41,3.39-17.41-6.76Z"/>
      <path class="cls-1" d="m318.49,43.62c-3.73,3.55-11.12,3.55-14.85,0-3.73-3.55-3.73-10.61,0-14.16,3.73-3.55,11.12-3.55,14.85,0s3.73,10.61,0,14.16Zm-11.19-3.21c1.9,1.94,5.63,1.94,7.53,0,1.9-1.94,1.9-5.8,0-7.74-1.9-1.94-5.63-1.94-7.53,0-1.9,1.94-1.9,5.8,0,7.74Z"/>
      <path class="cls-1" d="m336.16,27.29h5.6l-7.61,18.49h-5.26l-7.58-18.49h5.6c2.69,6.91,1.65,4.07,4.6,12.6,3.08-8.53,2.02-5.68,4.65-12.6Z"/>
      <path class="cls-1" d="m348.12,41.66h9.88v4.12h-14.71v-18.49h14.34v4.07h-9.51v3.09h8.98v3.91h-8.98v3.3Z"/>
      <path class="cls-1" d="m372.11,45.79l-4.31-5.97h-1.85v5.97h-5.02v-18.49h9.17c4.27,0,6.74,2.72,6.74,6.34,0,2.82-1.3,4.71-3.91,5.68l5.05,6.47h-5.86Zm-.21-12.07c0-1.5-.85-2.25-2.56-2.25h-3.43v4.49h3.43c1.71,0,2.56-.75,2.56-2.25Z"/>
      <path class="cls-1" d="m396.51,27.29l-7.53,11.33v7.16h-5.02v-7.13l-7.26-11.36h5.84l3.99,6.68,4.07-6.68h5.92Z"/>
    </g>
  </g>
  <g id="line_color" data-name="line color">
    <g>
      <path class="cls-5" d="m341.36,86.11h21.04c1.04,0,1.89.81,1.89,1.81v27.84c0,1-.85,1.81-1.89,1.81h-21.04c-1.04,0-1.89-.81-1.89-1.81v-27.84c0-1,.85-1.81,1.89-1.81Z"/>
      <g>
        <path class="cls-4" d="m362.27,88.15v22.87s-3.67,0-3.67,0v4.33s-17.13,0-17.13,0v-27.2s20.8,0,20.8,0Z"/>
        <g>
          <circle class="cls-3" cx="356.07" cy="97.84" r="2.09"/>
          <g>
            <line class="cls-6" x1="348.32" y1="105.16" x2="345.58" y2="107.89"/>
            <line class="cls-6" x1="348.32" y1="107.89" x2="345.58" y2="105.16"/>
          </g>
          <g>
            <line class="cls-6" x1="348.32" y1="96.48" x2="345.58" y2="99.21"/>
            <line class="cls-6" x1="348.32" y1="99.21" x2="345.58" y2="96.48"/>
          </g>
          <g>
            <line class="cls-6" x1="357.43" y1="105.16" x2="354.7" y2="107.89"/>
            <line class="cls-6" x1="357.43" y1="107.89" x2="354.7" y2="105.16"/>
          </g>
          <path class="cls-6" d="m349.93,109.84c1.02-1.56,2.15-3.77,1.75-5.77-.27-1.41-1.11-1.73-1.43-3.05-.31-1.27-.13-3.38,2.26-7.02"/>
          <polyline class="cls-6" points="350.37 94.14 352.61 93.65 353.1 95.89"/>
        </g>
        <polygon class="cls-4" points="362.27 111.02 358.6 115.35 358.6 111.02 362.27 111.02"/>
      </g>
      <path class="cls-5" d="m353.63,85.33h0c0-.97-.79-1.76-1.76-1.76h0c-.97,0-1.76.79-1.76,1.76h-2.93c-.97,0-1.76.79-1.76,1.76v2.35s12.9,0,12.9,0v-2.35c0-.97-.79-1.76-1.76-1.76h-2.93Z"/>
    </g>
    <g>
      <path class="cls-8" d="m436.16,117.56h31.29c1.16,0,2.11-.94,2.11-2.1v-30.42c0-.82-.66-1.48-1.48-1.48h-9.24c-.55,0-1.08.2-1.49.57l-2.67,2.39h-17.03c-.82,0-1.48.66-1.48,1.48v29.56Z"/>
      <path class="cls-4" d="m436.13,117.22h27.38c1.04,0,1.89-.84,1.89-1.88v-22.75c0-1.04-.84-1.88-1.89-1.88h-27.4c-1.04,0-1.89.84-1.89,1.88l.02,22.75c0,1.04.84,1.88,1.89,1.88Z"/>
      <path class="cls-8" d="m433.18,116.03c0,.93.64,1.54,1.6,1.54l32.66-.1h0c-.91,0-1.31-.59-1.32-1.48l-.33-18.55c-.02-.89-.65-1.5-1.58-1.5l-29.19-.19c-.71,0-1.51.58-1.76,1.3h0c-.05.14-.07.28-.07.41l-.02,18.58h0Z"/>
    </g>
    <g>
      <g>
        <g id="Filled_outline" data-name="Filled outline">
          <g>
            <path class="cls-3" d="m156.47,84.15v30.26c0,.32-.26.58-.58.58h-20.37c-1.93,0-3.49-1.56-3.49-3.49v-24.44c0-1.93,1.56-3.49,3.49-3.49h20.37c.32,0,.58.26.58.58Z"/>
            <path class="cls-4" d="m156.47,108.01v6.4c0,.32-.26.58-.58.58h-20.37c-.96,0-1.84-.39-2.47-1.02-.22-.22-.4-.46-.56-.72-.2-.35-.35-.75-.42-1.16-.03-.19-.05-.38-.05-.58s.02-.39.05-.58c.07-.42.21-.81.42-1.16.6-1.04,1.73-1.75,3.02-1.75h20.95Z"/>
            <rect class="cls-4" x="139.59" y="89.39" width="12.8" height="3.49"/>
          </g>
        </g>
        <line class="cls-6" x1="135.52" y1="83.82" x2="135.52" y2="107.77"/>
        <line class="cls-6" x1="134.94" y1="110.92" x2="155.99" y2="110.92"/>
      </g>
      <g id="filled_outline" data-name="filled outline">
        <g>
          <path class="cls-5" d="m164.77,110.59v-3.49h-1.97c-.16-.64-.41-1.24-.74-1.8l1.4-1.4-2.47-2.47-1.4,1.4c-.55-.33-1.16-.58-1.8-.74v-1.97h-3.49v1.97c-.64.16-1.24.41-1.8.74l-1.4-1.4-2.47,2.47,1.4,1.4c-.33.55-.58,1.16-.74,1.8h-1.97v3.49h1.97c.16.64.41,1.24.74,1.8l-1.4,1.4,2.47,2.47,1.4-1.4c.55.33,1.16.58,1.8.74v1.97h3.49v-1.97c.64-.16,1.24-.42,1.8-.74l1.4,1.4,2.47-2.47-1.4-1.4c.33-.55.58-1.16.74-1.8h1.97Z"/>
          <path class="cls-4" d="m159.54,108.84c0,1.93-1.57,3.49-3.49,3.49s-3.49-1.57-3.49-3.49,1.57-3.49,3.49-3.49,3.49,1.57,3.49,3.49Z"/>
        </g>
      </g>
    </g>
    <g id="filled_outline-2" data-name="filled outline">
      <g>
        <g>
          <g id="filled_outline-3" data-name="filled outline">
            <g>
              <g id="filled_outline-4" data-name="filled outline">
                <rect class="cls-4" x="241.99" y="85.92" width="16.41" height="31.66"/>
                <rect class="cls-7" x="244.34" y="83.57" width="11.72" height="2.34"/>
                <rect class="cls-3" x="246.68" y="112.88" width="7.03" height="4.69"/>
              </g>
              <line class="cls-3" x1="250.09" y1="112.88" x2="250.09" y2="117.49"/>
            </g>
          </g>
          <g>
            <rect class="cls-3" x="245.12" y="88.85" width="3.39" height="2.34"/>
            <rect class="cls-3" x="251.89" y="88.85" width="3.39" height="2.34"/>
            <rect class="cls-3" x="245.12" y="93.54" width="3.39" height="2.34"/>
            <rect class="cls-3" x="251.9" y="93.54" width="3.39" height="2.34"/>
            <rect class="cls-3" x="245.12" y="98.23" width="3.39" height="2.34"/>
            <rect class="cls-3" x="251.9" y="98.23" width="3.39" height="2.34"/>
            <rect class="cls-3" x="245.12" y="102.92" width="3.39" height="2.34"/>
            <rect class="cls-3" x="251.9" y="102.92" width="3.39" height="2.34"/>
            <rect class="cls-3" x="245.12" y="107.61" width="3.39" height="2.34"/>
            <rect class="cls-3" x="251.9" y="107.61" width="3.39" height="2.34"/>
          </g>
        </g>
        <g id="filled_outline-5" data-name="filled outline">
          <g id="filled_outline-6" data-name="filled outline">
            <rect class="cls-4" x="233.03" y="90.9" width="8.97" height="26.67"/>
          </g>
        </g>
        <g>
          <rect class="cls-3" x="235.82" y="96.03" width="3.39" height="2.34"/>
          <rect class="cls-3" x="235.82" y="100.72" width="3.39" height="2.34"/>
          <rect class="cls-3" x="235.82" y="105.41" width="3.39" height="2.34"/>
          <rect class="cls-3" x="235.82" y="110.1" width="3.39" height="2.34"/>
        </g>
        <g id="filled_outline-7" data-name="filled outline">
          <g id="filled_outline-8" data-name="filled outline">
            <polygon class="cls-4" points="258.41 90.9 267.37 94.49 267.37 117.57 258.41 117.57 258.41 90.9"/>
          </g>
        </g>
        <g>
          <rect class="cls-3" x="261.2" y="96.03" width="3.39" height="2.34"/>
          <rect class="cls-3" x="261.2" y="100.72" width="3.39" height="2.34"/>
          <rect class="cls-3" x="261.2" y="105.41" width="3.39" height="2.34"/>
          <rect class="cls-3" x="261.2" y="110.1" width="3.39" height="2.34"/>
        </g>
        <line class="cls-6" x1="237.51" y1="90.9" x2="237.51" y2="85.92"/>
      </g>
    </g>
    <g id="filled_outline-9" data-name="filled outline">
      <g>
        <g>
          <path class="cls-5" d="m58.54,102.9v-4.65s-3.67,0-3.67,0c-.34-1.96-1.1-3.82-2.24-5.44l2.6-2.61-3.27-3.29-2.6,2.61c-1.62-1.14-3.47-1.91-5.41-2.25v-3.69s-4.63,0-4.63,0v3.69c-1.95.34-3.8,1.11-5.41,2.25l-2.6-2.61-3.27,3.29,2.6,2.61c-1.14,1.62-1.91,3.48-2.24,5.44h-3.67s0,4.65,0,4.65h3.67c.34,1.96,1.1,3.82,2.24,5.44l-2.6,2.61,3.27,3.29,2.6-2.61c1.62,1.14,3.47,1.91,5.41,2.25v3.69s4.63,0,4.63,0v-3.69c1.95-.34,3.8-1.11,5.41-2.25l2.6,2.61,3.27-3.29-2.6-2.61c1.14-1.62,1.91-3.48,2.24-5.44h3.67Z"/>
          <path class="cls-4" d="m41.62,110.19c-5.29,0-9.58-4.31-9.58-9.62s4.29-9.63,9.58-9.63,9.57,4.31,9.57,9.63c0,2.65-1.07,5.06-2.8,6.8s-4.13,2.82-6.77,2.82Z"/>
        </g>
        <g>
          <path class="cls-4" d="m48.75,117.57c-1.87,0-3.4-1.51-3.41-3.38,0-.01,0-.07,0-.08,0-.55.16-1.11.44-1.61l8.78-15.44c.61-1.07,1.76-1.74,3-1.74s2.39.67,3,1.74l8.72,15.44c.29.5.44,1.07.44,1.66,0,1.87-1.53,3.4-3.41,3.4h-17.56Z"/>
          <path class="cls-7" d="m47.68,114.18h0c0-.19.05-.37.14-.53l8.78-15.43c.2-.35.56-.56.97-.56h0c.4,0,.77.22.97.56l8.72,15.43c.09.16.14.34.14.52h0c0,.59-.48,1.07-1.08,1.07h-17.56c-.59,0-1.08-.48-1.08-1.07h0Z"/>
          <g>
            <path class="cls-4" d="m56.84,109.58c-.19,0-.35-.16-.35-.35v-6.22c0-.57.47-1.04,1.05-1.04s1.05.47,1.05,1.04v6.22c0,.19-.16.35-.35.35h-1.39Z"/>
            <rect class="cls-4" x="56.49" y="110.75" width="2.09" height="2.08" rx=".35" ry=".35"/>
          </g>
        </g>
      </g>
    </g>
  </g>
</svg>